<?xml version="1.0" encoding="utf-8"?><svg viewBox="0 0 348 97" xmlns="http://www.w3.org/2000/svg" xmlns:xlink="http://www.w3.org/1999/xlink"><style>:root>svg{display:none}:root>svg:target{display:block}</style><svg viewBox="0 0 23 18" id="angle-left" xmlns="http://www.w3.org/2000/svg"><path d="m13.485 15.144.961-.764L7.58 8.925l6.867-5.456-.961-.764L6.14 8.542l-.458.383.458.382 7.346 5.837h-.001Z"/></svg><svg viewBox="0 0 23 18" id="angle-right" xmlns="http://www.w3.org/2000/svg"><path d="m9.584 2.705-.962.764 6.867 5.456-6.867 5.455.962.764 7.345-5.837.458-.382-.459-.383-7.345-5.837Z"/></svg><svg viewBox="0 0 79 24" id="arrow-left" xmlns="http://www.w3.org/2000/svg"><path d="M.94 10.94a1.5 1.5 0 0 0 0 2.12l9.545 9.547a1.5 1.5 0 0 0 2.122-2.122L4.12 12l8.486-8.485a1.5 1.5 0 0 0-2.122-2.122L.94 10.94Zm77.086-.44H2v3h76.026v-3Z"/></svg><svg viewBox="0 0 78 24" id="arrow-right" xmlns="http://www.w3.org/2000/svg"><path d="M77.087 13.06a1.5 1.5 0 0 0 0-2.12l-9.546-9.547a1.5 1.5 0 1 0-2.121 2.122L73.905 12l-8.485 8.485a1.5 1.5 0 1 0 2.121 2.122l9.546-9.546ZM0 13.5h76.026v-3H0v3Z"/></svg><svg viewBox="0 0 348 97" id="casa-tamarit-logo" xmlns="http://www.w3.org/2000/svg"><path d="M2.438 91.688c.25-.813.468-2.188.656-4.126.25-1.874.437-3.78.562-5.718.188-2.25.344-4.688.469-7.313.188-1.937.344-4.375.469-7.312.125-2.938.218-6.063.281-9.375.063-3.313.094-6.657.094-10.032 0-3.437-.032-6.624-.094-9.562-.063-2.938-.188-5.469-.375-7.594-.125-2.125-.313-3.562-.563-4.312 1.188-.688 2.25-1.188 3.188-1.5.938-.313 1.75-.532 2.438-.657.75-.187 1.437-.25 2.062-.187.5.063 1 .156 1.5.281.438.125.844.313 1.219.563.375.187.656.468.844.843a790.18 790.18 0 0 1-.47 11.907 441.229 441.229 0 0 1-.468 10.875c-.25 3.875-.5 7.593-.75 11.156-.188 3.75-.375 7-.563 9.75-.124 2.688-.25 5.063-.374 7.125-.126 2-.22 3.813-.282 5.438a117.457 117.457 0 0 0-.094 4.687c1.5-.313 3.282-.656 5.344-1.031 2.063-.438 4.407-.875 7.032-1.313 2.5-.375 4.593-.469 6.28-.281 1.688.125 3.032.5 4.032 1.125 1 .563 1.688 1.281 2.063 2.156.374.938.53 1.969.468 3.094-.125 1.25-.218 2.219-.281 2.906a18.883 18.883 0 0 0-.094 1.594c-.687-.438-1.625-.75-2.812-.938a69.468 69.468 0 0 0-3.563-.468 32.633 32.633 0 0 0-4.312-.094A92.867 92.867 0 0 0 21 93.75c-1.625.125-3.531.313-5.719.563-2.187.25-4.469.624-6.844 1.124-1.687-1.187-3.093-2.124-4.218-2.812a57.597 57.597 0 0 0-1.782-.938Zm36.187-37.876c0-.374.5-.78 1.5-1.218a16.8 16.8 0 0 1 3.281-1.032c1.25-.312 2.375-.468 3.375-.468 1.063-.063 1.594.156 1.594.656 0 .938-.063 2.281-.188 4.031-.124 1.688-.28 3.5-.468 5.438a1798.61 1798.61 0 0 0-.563 5.718 94.568 94.568 0 0 0-.375 4.782c-.125 1.375-.25 2.875-.375 4.5a86.452 86.452 0 0 0-.281 4.594 70.917 70.917 0 0 0 0 5.156c0 .312-.313.625-.938.937a7.244 7.244 0 0 1-2.062.656 8.889 8.889 0 0 1-2.156.282c-.688 0-1.063-.125-1.125-.375-.125-.25-.25-.688-.375-1.313s-.25-1.5-.375-2.625c-.125-1.187-.219-2.687-.282-4.5-.062-1.875-.03-4.125.094-6.75.25-5.187.282-9.187.094-12a327.078 327.078 0 0 1-.375-6.468Zm6.563-18.656c1.25 0 2.437.375 3.562 1.125s1.688 1.75 1.688 3c0 .938-.25 1.844-.75 2.719-.438.875-1 1.656-1.688 2.344a8.957 8.957 0 0 1-2.344 1.687c-.875.375-1.687.563-2.437.563-1 0-1.813-.157-2.438-.469-.625-.375-1.125-.781-1.5-1.219a5.06 5.06 0 0 1-.656-1.593 7.359 7.359 0 0 1-.188-1.594c0-.625.094-1.313.282-2.063A5.315 5.315 0 0 1 39.75 37.5c.5-.688 1.188-1.25 2.063-1.688.874-.437 2-.656 3.374-.656Zm-2.344 8.719c.375 0 .781-.125 1.218-.375.5-.313.938-.656 1.313-1.031a4.659 4.659 0 0 0 1.031-1.219c.313-.438.469-.813.469-1.125 0-.5-.25-.75-.75-.75-.313 0-.719.125-1.219.375-.437.25-.875.563-1.312.938a4.802 4.802 0 0 0-1.125 1.124c-.25.376-.375.75-.375 1.126 0 .624.25.937.75.937ZM67.03 26.25c-.125 2.25-.344 4.844-.656 7.781-.313 2.938-.656 6.094-1.031 9.469-.313 3.375-.656 6.906-1.031 10.594a622.356 622.356 0 0 0-.844 11.156c-.25 3.75-.375 6.813-.375 9.188.062 2.312.218 4.218.468 5.718s.594 2.688 1.032 3.563c.437.875 1 1.719 1.687 2.531-.812.5-1.562.875-2.25 1.125-.687.25-1.281.438-1.781.563-.625.187-1.188.28-1.688.28-.937 0-1.75-.437-2.437-1.312-.688-.937-1.25-2.125-1.688-3.562a43.248 43.248 0 0 1-.937-4.781 51.915 51.915 0 0 1-.281-5.344c0-1.875.062-4.031.187-6.469.125-2.5.25-5.125.375-7.875.188-2.813.375-5.719.563-8.719.187-3.062.343-6.093.468-9.093.126-2.313.25-4.407.376-6.282.124-1.625.218-3.093.28-4.406.063-1.375.032-2.188-.093-2.438a3.52 3.52 0 0 1 1.406-1.125c.563-.25 1.094-.468 1.594-.656.625-.187 1.25-.343 1.875-.468h1.781c.5 0 1.031.062 1.594.187.563.063 1.031.188 1.406.375ZM72 53.813c0-.376.5-.782 1.5-1.22a16.8 16.8 0 0 1 3.281-1.03c1.25-.313 2.375-.47 3.375-.47 1.063-.062 1.594.157 1.594.657 0 .938-.063 2.281-.188 4.031-.124 1.688-.28 3.5-.468 5.438a1798.61 1798.61 0 0 0-.563 5.718 94.568 94.568 0 0 0-.375 4.782c-.125 1.375-.25 2.875-.375 4.5a86.452 86.452 0 0 0-.281 4.594 70.917 70.917 0 0 0 0 5.156c0 .312-.313.625-.938.937a7.244 7.244 0 0 1-2.062.656 8.889 8.889 0 0 1-2.156.282c-.688 0-1.063-.125-1.125-.375-.125-.25-.25-.688-.375-1.313s-.25-1.5-.375-2.625c-.125-1.187-.219-2.687-.281-4.5-.063-1.875-.032-4.125.093-6.75.25-5.187.281-9.187.094-12A327.078 327.078 0 0 1 72 53.813Zm6.563-18.657c1.25 0 2.437.375 3.562 1.125s1.688 1.75 1.688 3c0 .938-.25 1.844-.75 2.719-.438.875-1 1.656-1.688 2.344a8.957 8.957 0 0 1-2.344 1.687c-.875.375-1.687.563-2.437.563-1 0-1.813-.157-2.438-.469-.625-.375-1.125-.781-1.5-1.219A5.06 5.06 0 0 1 72 43.313a7.359 7.359 0 0 1-.188-1.594c0-.625.094-1.313.282-2.063a5.315 5.315 0 0 1 1.031-2.156c.5-.688 1.188-1.25 2.063-1.688.874-.437 2-.656 3.374-.656Zm-2.344 8.719c.375 0 .781-.125 1.219-.375.5-.313.937-.656 1.312-1.031a4.659 4.659 0 0 0 1.031-1.219c.313-.438.469-.813.469-1.125 0-.5-.25-.75-.75-.75-.313 0-.719.125-1.219.375-.437.25-.875.563-1.312.938a4.802 4.802 0 0 0-1.125 1.124c-.25.376-.375.75-.375 1.126 0 .624.25.937.75.937ZM105 35.531a4.518 4.518 0 0 1-.75-1.312c-.188-.5-.344-1-.469-1.5a15.711 15.711 0 0 1-.281-1.688v-1.593c0-.438.031-.844.094-1.22.062-.437.218-.78.468-1.03 1.938-.5 4.032-.875 6.282-1.125a470.7 470.7 0 0 1 6.375-.844c2.312-.25 4.593-.469 6.843-.657.626-.437 1.188-.75 1.688-.937.5-.188.906-.188 1.219 0 .125 0 .25.25.375.75h.375c2.25-.063 4.406-.125 6.469-.188a70.91 70.91 0 0 1 5.156 0c1.75 0 3.094.032 4.031.094.5.063.875.438 1.125 1.125.25.688.312 1.563.188 2.625-.063 1.063-.344 2.219-.844 3.469s-1.313 2.438-2.438 3.563a25.998 25.998 0 0 0-4.5-.75 216.374 216.374 0 0 0-4.218-.47 55.446 55.446 0 0 0-4.407-.187h-.469c.063 2.5.094 5.282.094 8.344 0 3-.031 6.063-.094 9.188 0 3.062-.031 6.093-.093 9.093a1381.29 1381.29 0 0 1-.188 7.875v9.563c0 2.625.094 4.875.281 6.75.188 1.812.469 3.281.844 4.406.375 1.125.906 2.031 1.594 2.719l-.562.562c-.25.375-.626.75-1.126 1.125-.437.375-1 .719-1.687 1.031-.625.313-1.344.438-2.156.376-2.063-.063-3.594-.75-4.594-2.063-1-1.313-1.687-3.156-2.063-5.531-.374-2.375-.531-5.25-.468-8.625.125-3.375.312-7.219.562-11.531.188-2.938.344-5.97.469-9.094.187-3.125.344-6.125.469-9 .187-2.938.344-5.657.468-8.157.126-2.562.25-4.78.376-6.656a64.155 64.155 0 0 0-4.782.375c-1.437.125-3 .282-4.687.469-1.688.188-3.344.406-4.969.656Zm60.844 46.688c.125.437.312.844.562 1.219.188.312.438.624.75.937.375.25.813.406 1.313.469-.438.875-.875 1.469-1.313 1.781-.25.188-.468.313-.656.375-.562.188-1.406.281-2.531.281-1.125 0-2.219-.344-3.281-1.031-.376-.313-.719-.781-1.032-1.406-.312-.5-.594-1.188-.844-2.063-.187-.937-.343-2.125-.468-3.562-.875 1.875-1.875 3.375-3 4.5-1.063 1.062-2.125 1.844-3.188 2.344-1.187.687-2.406 1.093-3.656 1.218a9.269 9.269 0 0 1-4.5-.75c-1.375-.687-2.562-1.687-3.562-3-.938-1.375-1.657-3.031-2.157-4.969-.5-1.937-.656-4.124-.469-6.562.188-2.563.688-4.844 1.5-6.844.813-2 1.782-3.781 2.907-5.344 1.125-1.562 2.312-2.874 3.562-3.937 1.25-1.125 2.438-2.031 3.563-2.719 1.187-.75 2.187-1.281 3-1.593.875-.376 1.437-.594 1.687-.657.688-.187 1.281-.25 1.781-.187.5.062.938.343 1.313.843.125.188.281.407.469.657.125.25.281.593.468 1.031.188.375.344.813.469 1.313a30.526 30.526 0 0 0-4.219 2.343 18.33 18.33 0 0 0-3.656 3c-1.062 1.188-2 2.625-2.812 4.313-.813 1.687-1.438 3.75-1.875 6.187-.625 3.063-.469 5.531.469 7.406 1 1.876 2.343 2.657 4.031 2.344 1-.312 1.969-.906 2.906-1.781.813-.75 1.656-1.875 2.531-3.375.938-1.5 1.813-3.563 2.625-6.188.313-3.75.563-6.687.75-8.812.25-2.188.469-3.844.657-4.969.25-1.312.437-2.187.562-2.625.188-.312.562-.593 1.125-.843a8.391 8.391 0 0 1 1.875-.75c.688-.188 1.312-.282 1.875-.282.563-.062.937-.062 1.125 0 .125.063.188.844.188 2.344 0 1.438-.063 3.281-.188 5.531a377.912 377.912 0 0 1-.281 7.219c-.125 2.563-.25 5-.375 7.313a710.855 710.855 0 0 1-.188 6.093c0 1.688.063 2.75.188 3.188Zm28.781-24.469c-.5 0-1.063.281-1.687.844-.563.5-1.126 1.218-1.688 2.156a32.399 32.399 0 0 0-1.688 3 31.294 31.294 0 0 0-1.5 3.281 242.14 242.14 0 0 0-3.093 8.063c-1 2.75-1.594 5.125-1.781 7.125a1.755 1.755 0 0 0-.094.562v.375c-.063.125-.094.313-.094.563-.125.875-.312 1.594-.562 2.156-.188.5-.626.844-1.313 1.031-.75.125-1.5.219-2.25.281a6.18 6.18 0 0 1-2.156-.187c-.438-.125-.781-.344-1.031-.656a7.01 7.01 0 0 1-.469-1.219c-.063-.5-.125-.969-.188-1.406v-1.125c0-.375.031-1.531.094-3.469.063-2 .125-4.25.187-6.75.063-2.5.094-4.938.094-7.313 0-2.437-.031-4.28-.094-5.53-.124-.876-.25-1.688-.374-2.438a25.084 25.084 0 0 0-.469-2.063c-.125-.687-.344-1.281-.657-1.781a15.112 15.112 0 0 1 2.063-.938c.687-.25 1.313-.437 1.875-.562a12.406 12.406 0 0 1 1.875-.375c1.5-.125 2.656-.125 3.469 0 .875.125 1.312.781 1.312 1.969 0 1.062-.094 2.718-.281 4.968-.125 2.188-.281 5.25-.469 9.188.688-1.563 1.5-3.313 2.438-5.25.937-2 1.937-3.844 3-5.531 1.062-1.75 2.156-3.188 3.281-4.313 1.125-1.187 2.187-1.781 3.187-1.781.688 0 1.469.156 2.344.469.938.25 1.813.625 2.625 1.125.813.437 1.531.937 2.157 1.5.687.562 1.156 1.125 1.406 1.687.25.625.406 1.594.468 2.907a51.242 51.242 0 0 1 0 4.406 35.513 35.513 0 0 1 1.688-3.469 44.882 44.882 0 0 1 1.875-3.094c.687-1 1.375-1.843 2.063-2.531.687-.688 1.312-1.156 1.874-1.406.75-.313 1.657-.375 2.719-.188 1.063.188 2.094.532 3.094 1.032 1.063.437 1.969.968 2.719 1.593.812.625 1.312 1.219 1.5 1.782.187.624.344 1.593.468 2.906.126 1.312.219 2.75.282 4.312.062 1.563.094 3.188.094 4.875 0 1.625-.032 3.063-.094 4.313-.125 3.625-.094 6.5.094 8.625.187 2.062.937 3.594 2.25 4.594-.876.562-1.688.968-2.438 1.218-.75.313-1.406.531-1.969.656-.687.188-1.281.282-1.781.282-.688 0-1.25-.188-1.688-.563-.437-.312-.781-.75-1.031-1.312a5.917 5.917 0 0 1-.469-1.875 22.954 22.954 0 0 1-.093-2.063c0-.625.031-1.656.093-3.094.126-1.5.219-3.187.282-5.062a87.933 87.933 0 0 0 0-5.719c-.063-2-.219-3.812-.469-5.437-.187-1.688-.531-3.063-1.031-4.125-.5-1.063-1.188-1.594-2.063-1.594-.75 0-1.469.469-2.156 1.406-.687.875-1.344 2.063-1.969 3.563-.625 1.437-1.187 3.062-1.687 4.875-.438 1.75-.844 3.5-1.219 5.25a57.542 57.542 0 0 0-.844 4.875c-.187 1.437-.281 2.594-.281 3.469l-.094-.844v3.281l.188 3c.062.375-.281.688-1.031.938-.75.312-1.594.437-2.532.374a5.372 5.372 0 0 1-2.437-.562c-.75-.375-1.125-1-1.125-1.875v-2.813c0-1.25-.032-2.656-.094-4.218 0-1.563-.031-3.188-.094-4.875 0-1.75-.031-3.406-.094-4.969 0-1.188-.031-2.406-.093-3.656 0-1.25-.063-2.375-.188-3.375-.125-1.063-.375-1.907-.75-2.532-.312-.624-.781-.937-1.406-.937Zm62.531 24.469c.125.437.313.844.563 1.219.187.312.437.624.75.937a3 3 0 0 0 1.312.469c-.437.875-.875 1.469-1.312 1.781-.25.188-.469.313-.657.375-.562.188-1.406.281-2.531.281-1.125 0-2.219-.344-3.281-1.031-.375-.313-.719-.781-1.031-1.406-.313-.5-.594-1.188-.844-2.063-.187-.937-.344-2.125-.469-3.562-.875 1.875-1.875 3.375-3 4.5-1.062 1.062-2.125 1.844-3.187 2.344-1.188.687-2.407 1.093-3.657 1.218a9.269 9.269 0 0 1-4.5-.75c-1.374-.687-2.562-1.687-3.562-3-.938-1.375-1.656-3.031-2.156-4.969-.5-1.937-.656-4.124-.469-6.562.187-2.563.687-4.844 1.5-6.844s1.781-3.781 2.906-5.344c1.125-1.562 2.313-2.874 3.563-3.937 1.25-1.125 2.437-2.031 3.562-2.719 1.188-.75 2.188-1.281 3-1.593.875-.376 1.438-.594 1.688-.657.687-.187 1.281-.25 1.781-.187.5.062.937.343 1.313.843.124.188.281.407.468.657.125.25.282.593.469 1.031.187.375.344.813.469 1.313a30.526 30.526 0 0 0-4.219 2.343 18.301 18.301 0 0 0-3.656 3c-1.063 1.188-2 2.625-2.813 4.313-.812 1.687-1.437 3.75-1.875 6.187-.625 3.063-.469 5.531.469 7.406 1 1.876 2.344 2.657 4.031 2.344 1-.312 1.969-.906 2.907-1.781.812-.75 1.656-1.875 2.531-3.375.937-1.5 1.812-3.563 2.625-6.188.312-3.75.562-6.687.75-8.812.25-2.188.468-3.844.656-4.969.25-1.312.438-2.187.562-2.625.188-.312.563-.593 1.126-.843a8.383 8.383 0 0 1 1.874-.75c.688-.188 1.313-.282 1.876-.282.562-.062.937-.062 1.124 0 .126.063.188.844.188 2.344 0 1.438-.062 3.281-.188 5.531a377.912 377.912 0 0 1-.281 7.219c-.125 2.563-.25 5-.375 7.313a714.645 714.645 0 0 1-.187 6.093c0 1.688.062 2.75.187 3.188Zm33.469-24c0 .875-.25 1.781-.75 2.718-.437.876-1 1.72-1.687 2.532a12.832 12.832 0 0 1-2.344 2.156c-.813.563-1.594.906-2.344 1.031.5-1.937.656-3.437.469-4.5-.188-1.062-.5-1.843-.938-2.343a2.725 2.725 0 0 0-1.875-.938c-1.125 0-2.218.656-3.281 1.969-1 1.25-1.875 2.812-2.625 4.687-.75 1.813-1.344 3.781-1.781 5.906-.438 2.063-.657 3.938-.657 5.626a21.31 21.31 0 0 0 .094 3.468c.063.938.156 1.906.282 2.906.187 1 .437 1.782.75 2.344-.376.313-1 .688-1.876 1.125a7.603 7.603 0 0 1-2.624.844 3.673 3.673 0 0 1-2.438-.469c-.688-.437-1.062-1.375-1.125-2.812a85.944 85.944 0 0 1-.281-4.594v-5.156c.062-1.75.125-3.469.187-5.156.063-1.688.157-3.25.281-4.688.126-2.75.188-4.875.188-6.375s-.031-2.938-.094-4.313c0-.25.406-.593 1.219-1.03a19.36 19.36 0 0 1 2.813-1.313c1.062-.375 2.031-.594 2.906-.657.875-.062 1.312.126 1.312.563 0 .688-.094 2.063-.281 4.125-.125 2-.313 4.094-.563 6.281.438-1.187 1-2.468 1.688-3.843a27.268 27.268 0 0 1 2.531-3.844c.938-1.188 2-2.157 3.188-2.907a6.82 6.82 0 0 1 3.937-1.218c1.125 0 2.032.343 2.719 1.031a8.032 8.032 0 0 1 1.781 2.344c.438.875.75 1.75.938 2.625.187.875.281 1.5.281 1.875Zm3.563-4.407c0-.374.5-.78 1.5-1.218 1-.438 2.093-.782 3.281-1.032 1.25-.312 2.375-.468 3.375-.468 1.062-.063 1.594.156 1.594.656 0 .938-.063 2.281-.188 4.031-.125 1.688-.281 3.5-.469 5.438-.187 1.875-.375 3.781-.562 5.718a93.182 93.182 0 0 0-.375 4.782c-.125 1.375-.25 2.875-.375 4.5a85.94 85.94 0 0 0-.281 4.594 70.355 70.355 0 0 0 0 5.156c0 .312-.313.625-.938.937a7.241 7.241 0 0 1-2.062.656 8.891 8.891 0 0 1-2.157.282c-.687 0-1.062-.125-1.125-.375-.125-.25-.25-.688-.375-1.313s-.25-1.5-.375-2.625c-.125-1.187-.218-2.687-.281-4.5-.063-1.875-.031-4.125.094-6.75.25-5.187.281-9.187.093-12a325.334 325.334 0 0 1-.374-6.468Zm6.562-18.656c1.25 0 2.438.375 3.562 1.125 1.126.75 1.688 1.75 1.688 3 0 .938-.25 1.844-.75 2.719a8.96 8.96 0 0 1-1.688 2.344 8.945 8.945 0 0 1-2.343 1.687c-.875.375-1.688.563-2.438.563-1 0-1.812-.157-2.437-.469-.625-.375-1.125-.781-1.5-1.219a5.023 5.023 0 0 1-.656-1.593 7.3 7.3 0 0 1-.188-1.594c0-.625.094-1.313.281-2.063a5.323 5.323 0 0 1 1.031-2.156c.5-.688 1.188-1.25 2.063-1.688.875-.437 2-.656 3.375-.656Zm-2.344 8.719c.375 0 .782-.125 1.219-.375.5-.313.937-.656 1.313-1.031a4.667 4.667 0 0 0 1.031-1.219c.312-.438.469-.813.469-1.125 0-.5-.25-.75-.75-.75-.313 0-.719.125-1.219.375-.438.25-.875.563-1.313.938a4.825 4.825 0 0 0-1.125 1.124c-.25.376-.375.75-.375 1.126 0 .624.25.937.75.937Zm47.25 1.406c-.687-.125-1.625-.25-2.812-.375a59.994 59.994 0 0 0-3.469-.281 97.317 97.317 0 0 0-4.406-.094c-1.563-.125-3.531-.125-5.907 0-2.312.063-4.75.094-7.312.094a69.023 69.023 0 0 1-.375 4.969c-.125 1.687-.25 3.343-.375 4.968-.312 3-.594 6.063-.844 9.188a149.412 149.412 0 0 0-.281 8.906c0 2.813.156 5.375.469 7.688.375 2.25 1.031 4.031 1.968 5.344-.75.562-1.562 1-2.437 1.312-.875.25-1.656.438-2.344.563-.812.187-1.625.28-2.437.28-.75 0-1.375-.25-1.875-.75s-.781-1.374-.844-2.624a72.502 72.502 0 0 1-.094-6.375c.125-2.188.25-4.469.375-6.844.188-2.375.375-4.906.563-7.594.187-2.75.375-5.75.562-9 .188-3.375.281-6.656.281-9.843a234.16 234.16 0 0 1-6 .093c-1.624 0-2.531-.031-2.718-.093-.188-.126-.406-.407-.656-.844-.25-.375-.563-.938-.938-1.688-.438-.75-.969-1.812-1.594-3.187h3.938c1.375 0 2.656-.032 3.844-.094l4.124-.188c-.062-1-.093-2.062-.093-3.187a40.75 40.75 0 0 1-.094-2.906c0-1.125-.031-2.157-.094-3.094 0-.375.438-.813 1.313-1.313a22.33 22.33 0 0 1 3-1.5c1.062-.437 2.031-.718 2.906-.843.938-.125 1.406.093 1.406.656 0 .563-.031 1.938-.094 4.125 0 2.125-.062 4.719-.187 7.781.625 0 1.094-.031 1.406-.093a338.53 338.53 0 0 0 7.969-.376c2.062-.187 3.75-.218 5.062-.093 1.313.125 2.469.437 3.469.937s2.125 1.313 3.375 2.438c.438.375.813.781 1.125 1.218.313.376.563.813.75 1.313.25.438.375.906.375 1.406ZM204.344 23.094c0 .343-.125.875-.375 1.593-.219.688-.594 1.391-1.125 2.11-.532.687-1.219 1.297-2.063 1.828-.812.531-1.812.797-3 .797-1.687 0-3.109-.453-4.265-1.36-1.125-.937-1.922-2.265-2.391-3.984-.375-1.437-.484-2.969-.328-4.594a13.293 13.293 0 0 1 1.359-4.593 10.294 10.294 0 0 1 3-3.563c1.282-1 2.844-1.547 4.688-1.64.937-.032 1.718.14 2.344.515.624.375 1.109.86 1.453 1.453.343.594.547 1.25.609 1.969a4.644 4.644 0 0 1-.234 1.969 3.728 3.728 0 0 1-.938 1.594c-.406.406-.937.625-1.594.656-.656.062-1.203-.016-1.64-.235a3.405 3.405 0 0 1-.985-.89 3.647 3.647 0 0 1-.468-1.078c-.063-.375-.063-.704 0-.985.093-.406.25-.781.468-1.125.188-.312.453-.625.797-.937.375-.313.86-.563 1.453-.75a.5.5 0 0 0-.281-.094.882.882 0 0 1-.281-.047.65.65 0 0 1-.281-.047c-.5 0-1.078.172-1.735.516-.625.344-1.234.89-1.828 1.64-.562.75-1.047 1.72-1.453 2.907-.375 1.156-.562 2.562-.562 4.218 0 .72.078 1.438.234 2.157.156.687.39 1.312.703 1.875.344.531.75.968 1.219 1.312.5.313 1.078.469 1.734.469.75 0 1.406-.156 1.969-.469a6.395 6.395 0 0 0 1.5-1.172 5.68 5.68 0 0 0 .937-1.312c.25-.438.422-.766.516-.985a.485.485 0 0 1 .469-.28c.25 0 .375.187.375.562Zm16.265 3.515c.063.22.157.422.282.61.093.156.218.312.375.468.187.125.406.204.656.235-.219.437-.438.734-.656.89a1.23 1.23 0 0 1-.328.188c-.282.094-.704.14-1.266.14-.563 0-1.11-.171-1.641-.515-.187-.156-.359-.39-.515-.703-.157-.25-.297-.594-.422-1.031a16.799 16.799 0 0 1-.235-1.782c-.437.938-.937 1.688-1.5 2.25-.531.532-1.062.922-1.593 1.172a4.528 4.528 0 0 1-1.828.61 4.63 4.63 0 0 1-2.25-.375 5.086 5.086 0 0 1-1.782-1.5c-.468-.688-.828-1.516-1.078-2.485-.25-.968-.328-2.062-.234-3.281.094-1.281.344-2.422.75-3.422s.89-1.89 1.453-2.672a10.981 10.981 0 0 1 1.781-1.969 12.318 12.318 0 0 1 1.781-1.359c.594-.375 1.094-.64 1.5-.797.438-.187.719-.297.844-.328.344-.094.641-.125.891-.094.25.032.468.172.656.422.062.094.141.203.234.328.063.125.141.297.235.516.093.188.172.406.234.656-.75.344-1.453.735-2.109 1.172a9.15 9.15 0 0 0-1.828 1.5c-.532.594-1 1.313-1.407 2.156-.406.844-.718 1.875-.937 3.094-.313 1.531-.234 2.766.234 3.703.5.938 1.172 1.328 2.016 1.172.5-.156.984-.453 1.453-.89.406-.375.828-.938 1.266-1.688.468-.75.906-1.781 1.312-3.094.156-1.875.281-3.343.375-4.406.125-1.094.234-1.922.328-2.484.125-.657.219-1.094.282-1.313.093-.156.281-.297.562-.422.281-.156.594-.281.938-.375.343-.094.656-.14.937-.14.281-.032.469-.032.563 0 .062.03.093.421.093 1.171 0 .72-.031 1.641-.093 2.766a202.435 202.435 0 0 1-.141 3.61c-.063 1.28-.125 2.5-.188 3.656a359.285 359.285 0 0 1-.093 3.047c0 .843.031 1.375.093 1.593Zm11.438-6.515c.687.25 1.344.484 1.969.703a7.256 7.256 0 0 1 1.64.797 3.85 3.85 0 0 1 1.125 1.125c.281.406.422.922.422 1.547 0 .75-.172 1.453-.515 2.109-.313.656-.782 1.234-1.407 1.734s-1.39.891-2.297 1.172c-.875.313-1.859.469-2.953.469-1.219 0-2.203-.125-2.953-.375-.75-.219-1.328-.484-1.734-.797-.406-.312-.672-.625-.797-.937-.125-.313-.188-.563-.188-.75 0-.375.079-.782.235-1.22.156-.468.453-.968.89-1.5.188-.218.391-.421.61-.608.437-.375.875-.61 1.312-.704-.062.72.016 1.313.235 1.782.25.437.562.78.937 1.03.406.25.844.423 1.313.517.5.093.968.14 1.406.14.437 0 .875-.062 1.312-.187a6.666 6.666 0 0 0 1.266-.47c.375-.218.672-.452.891-.702.25-.282.375-.578.375-.89 0-.345-.141-.626-.422-.845-.281-.218-.641-.39-1.078-.515a5.787 5.787 0 0 0-1.36-.328 98.984 98.984 0 0 1-1.359-.282l-1.781-.375a10.269 10.269 0 0 1-2.157-.843 6.446 6.446 0 0 1-1.828-1.5c-.5-.625-.75-1.453-.75-2.485 0-1.187.297-2.218.891-3.093a8.557 8.557 0 0 1 2.25-2.25 10.574 10.574 0 0 1 2.859-1.407c1-.312 1.891-.469 2.672-.469.406 0 .844.063 1.313.188.468.094.906.281 1.312.563.406.25.735.593.985 1.03.281.438.421 1 .421 1.688s-.062 1.25-.187 1.688c-.094.406-.25.734-.469.984-.187.219-.422.36-.703.422a4.571 4.571 0 0 1-.984.094c-.25 0-.485-.032-.704-.094-.187-.063-.39-.125-.609-.188a1.651 1.651 0 0 1-.609-.328 4.86 4.86 0 0 0 .703-1.078c.187-.344.281-.765.281-1.265 0-.438-.125-.829-.375-1.172-.219-.344-.594-.516-1.125-.516a4.27 4.27 0 0 0-1.64.328 4.87 4.87 0 0 0-1.36.89 5.003 5.003 0 0 0-.937 1.313 3.61 3.61 0 0 0-.329 1.547c0 .844.313 1.64.938 2.39.656.75 1.672 1.392 3.047 1.923Zm21.422 6.515c.062.22.156.422.281.61.094.156.219.312.375.468.187.125.406.204.656.235-.219.437-.437.734-.656.89a1.215 1.215 0 0 1-.328.188c-.281.094-.703.14-1.266.14-.562 0-1.109-.171-1.64-.515-.188-.156-.36-.39-.516-.703-.156-.25-.297-.594-.422-1.031a16.573 16.573 0 0 1-.234-1.782c-.438.938-.938 1.688-1.5 2.25-.531.532-1.063.922-1.594 1.172a4.523 4.523 0 0 1-1.828.61 4.634 4.634 0 0 1-2.25-.375 5.083 5.083 0 0 1-1.781-1.5c-.469-.688-.828-1.516-1.078-2.485-.25-.968-.329-2.062-.235-3.281.094-1.281.344-2.422.75-3.422s.891-1.89 1.453-2.672c.563-.781 1.156-1.437 1.782-1.969a12.21 12.21 0 0 1 1.781-1.359c.593-.375 1.093-.64 1.5-.797.437-.187.719-.297.843-.328.344-.094.641-.125.891-.094.25.032.469.172.656.422.063.094.141.203.235.328.062.125.14.297.234.516.094.188.172.406.234.656-.75.344-1.453.735-2.109 1.172a9.179 9.179 0 0 0-1.828 1.5c-.531.594-1 1.313-1.406 2.156-.407.844-.719 1.875-.938 3.094-.312 1.531-.234 2.766.235 3.703.5.938 1.172 1.328 2.015 1.172.5-.156.985-.453 1.453-.89.407-.375.828-.938 1.266-1.688.469-.75.906-1.781 1.312-3.094.157-1.875.282-3.343.376-4.406.124-1.094.234-1.922.328-2.484.125-.657.218-1.094.281-1.313.094-.156.281-.297.562-.422.282-.156.594-.281.938-.375.344-.094.656-.14.937-.14.282-.032.469-.032.563 0 .062.03.094.421.094 1.171 0 .72-.032 1.641-.094 2.766a185.175 185.175 0 0 1-.141 3.61c-.062 1.28-.125 2.5-.187 3.656a355.474 355.474 0 0 1-.094 3.047c0 .843.031 1.375.094 1.593Z"/></svg><svg viewBox="0 0 27 27" id="clock" xmlns="http://www.w3.org/2000/svg"><path d="M13.5 1.688C6.977 1.688 1.687 6.976 1.687 13.5S6.978 25.313 13.5 25.313c6.523 0 11.813-5.29 11.813-11.813 0-6.523-5.29-11.813-11.813-11.813Zm0 21.62c-5.416 0-9.809-4.392-9.809-9.808 0-5.416 4.393-9.809 9.809-9.809 5.416 0 9.809 4.393 9.809 9.809 0 5.416-4.393 9.809-9.809 9.809Z"/><path d="m18.106 16.838-3.76-2.718V7.594a.212.212 0 0 0-.21-.211h-1.269a.212.212 0 0 0-.21.21v7.262c0 .069.03.132.086.172l4.361 3.18a.213.213 0 0 0 .296-.045l.754-1.029a.21.21 0 0 0-.048-.295Z"/></svg><svg viewBox="0 0 26 50" id="facebook" xmlns="http://www.w3.org/2000/svg"><g clip-path="url(#ga)"><path d="M6.783 50V26.538H.37v-8.447h6.412v-7.215C6.783 5.206 10.57 0 19.297 0c3.533 0 6.146.328 6.146.328l-.206 7.888s-2.665-.025-5.572-.025c-3.147 0-3.652 1.403-3.652 3.732v6.168h9.474l-.412 8.447h-9.062V50h-9.23Z"/></g><defs><clipPath id="ga"><path transform="translate(.371)" d="M0 0h25.116v50H0z"/></clipPath></defs></svg><svg viewBox="0 0 28 28" id="instagram" xmlns="http://www.w3.org/2000/svg"><path fill-rule="evenodd" clip-rule="evenodd" d="M8.19.333C9.634.265 10.095.25 13.774.25c3.678 0 4.139.016 5.582.083 1.442.066 2.427.3 3.29.638a6.655 6.655 0 0 1 2.397 1.588 6.727 6.727 0 0 1 1.561 2.433c.335.875.564 1.875.63 3.338.067 1.469.082 1.936.082 5.67 0 3.735-.016 4.203-.081 5.669-.066 1.462-.296 2.462-.63 3.337a6.756 6.756 0 0 1-1.562 2.436 6.632 6.632 0 0 1-2.398 1.585c-.862.34-1.847.573-3.287.64-1.445.068-1.906.083-5.584.083-3.68 0-4.14-.016-5.584-.082-1.44-.067-2.425-.3-3.287-.64a6.635 6.635 0 0 1-2.4-1.585 6.75 6.75 0 0 1-1.562-2.436C.608 22.133.38 21.133.312 19.67.246 18.201.232 17.734.232 14c0-3.735.015-4.203.08-5.668.066-1.465.296-2.465.63-3.34a6.756 6.756 0 0 1 1.563-2.434A6.63 6.63 0 0 1 4.902.97C5.764.632 6.749.4 8.189.333h.001Zm11.056 2.474c-1.428-.066-1.857-.08-5.472-.08-3.616 0-4.045.014-5.473.08-1.32.062-2.037.285-2.515.474A4.2 4.2 0 0 0 4.229 4.31c-.45.444-.796.984-1.012 1.581-.186.485-.407 1.213-.467 2.554-.065 1.45-.079 1.885-.079 5.556 0 3.671.014 4.106.079 5.556.06 1.341.28 2.069.467 2.554a4.276 4.276 0 0 0 1.012 1.581c.437.457.97.808 1.557 1.028.478.188 1.194.412 2.515.473 1.428.067 1.855.08 5.473.08 3.617 0 4.044-.013 5.472-.08 1.321-.06 2.038-.285 2.515-.473a4.2 4.2 0 0 0 1.558-1.028c.449-.444.795-.985 1.012-1.581.185-.485.406-1.212.466-2.554.065-1.45.079-1.885.079-5.556 0-3.671-.014-4.106-.079-5.556-.06-1.342-.28-2.069-.466-2.554a4.276 4.276 0 0 0-1.012-1.581A4.196 4.196 0 0 0 21.76 3.28c-.477-.189-1.194-.412-2.515-.474ZM12.044 18.24a4.454 4.454 0 0 0 3.043.156 4.523 4.523 0 0 0 2.448-1.842 4.64 4.64 0 0 0-.567-5.797 4.51 4.51 0 0 0-1.672-1.075 4.454 4.454 0 0 0-3.845.385 4.55 4.55 0 0 0-1.433 1.386 4.655 4.655 0 0 0-.567 3.88c.193.649.526 1.246.975 1.749a4.518 4.518 0 0 0 1.618 1.158ZM8.85 9.002A6.955 6.955 0 0 1 11.11 7.47a6.87 6.87 0 0 1 5.327 0 6.954 6.954 0 0 1 2.259 1.532 7.077 7.077 0 0 1 1.509 2.293 7.162 7.162 0 0 1 0 5.41 7.077 7.077 0 0 1-1.51 2.293 6.908 6.908 0 0 1-4.921 2.07 6.908 6.908 0 0 1-4.923-2.07A7.123 7.123 0 0 1 6.813 14c0-1.874.733-3.672 2.038-4.998Zm13.427-1.017a1.671 1.671 0 0 0 .517-1.191 1.694 1.694 0 0 0-.482-1.206 1.644 1.644 0 0 0-1.188-.49 1.626 1.626 0 0 0-1.174.524 1.685 1.685 0 0 0-.448 1.172c.006.434.179.85.482 1.157.303.308.712.483 1.14.49.428.006.842-.158 1.153-.456Z"/></svg><svg viewBox="0 0 50 50" id="leaf" xmlns="http://www.w3.org/2000/svg"><path d="m45.583 4.48-2.5.832A28.833 28.833 0 0 1 29.73 6.646 24.73 24.73 0 0 0 15.813 8.52a15.063 15.063 0 0 0-8.938 11.27 18.02 18.02 0 0 0 3.063 13.75c-.125.438-.25.876-.355 1.313a47.082 47.082 0 0 0-1.25 10.98H12.5a63.931 63.931 0 0 1 1.23-9 19.27 19.27 0 0 0 9.416 2.312 22.916 22.916 0 0 0 8.916-1.813c15.855-6.77 13.771-29.291 13.771-30.229l-.25-2.625ZM30.438 33.5C25 35.813 18.5 35.417 14.854 32.562a28.729 28.729 0 0 1 2.521-5.916 21.188 21.188 0 0 1 2.896-3.73 18.754 18.754 0 0 1 3.77-2.958 25 25 0 0 1 9.292-3.291v-2.084c-3.78-.13-7.536.64-10.958 2.25a21.417 21.417 0 0 0-8.583 7.605 31.394 31.394 0 0 0-2.084 3.895 14.584 14.584 0 0 1-.791-7.77 10.917 10.917 0 0 1 6.541-8.334 18.604 18.604 0 0 1 7.959-1.75c1.291 0 2.562.125 3.895.23 4.176.538 8.416.29 12.5-.73-.145 5.75-1.187 19.188-11.374 23.521Z"/></svg><svg viewBox="0 0 20 21" id="linked" xmlns="http://www.w3.org/2000/svg"><g clip-path="url(#ja)"><path d="M17.04 17.184h-2.962v-4.64c0-1.107-.02-2.532-1.542-2.532-1.543 0-1.78 1.206-1.78 2.45v4.722H7.794V7.641h2.845v1.304h.04a3.118 3.118 0 0 1 2.807-1.542c3.003 0 3.557 1.976 3.557 4.546l-.001 5.235ZM4.45 6.336a1.72 1.72 0 1 1-.001-3.44 1.72 1.72 0 0 1 0 3.44ZM5.93 17.184H2.965V7.641H5.93v9.543ZM18.518.144H1.476A1.46 1.46 0 0 0 0 1.587V18.7a1.46 1.46 0 0 0 1.476 1.443h17.042c.808.01 1.47-.636 1.482-1.443V1.585A1.463 1.463 0 0 0 18.518.143"/></g><defs><clipPath id="ja"><path transform="translate(0 .143)" d="M0 0h20v20H0z"/></clipPath></defs></svg><svg viewBox="0 0 161 78" id="logo-resto" xmlns="http://www.w3.org/2000/svg"><path d="M32.406 57.344a66.915 66.915 0 0 0-1.875-5.157c-.562-1.5-1.062-2.78-1.5-3.843-2.437.812-5.093 1.375-7.968 1.687 0 4 .093 7.407.28 10.219.063 1.75.126 3.25.188 4.5.125 1.188.219 2.219.282 3.094.125.875.25 1.656.375 2.344.125.75.312 1.468.562 2.156-1.25.937-2.469 1.625-3.656 2.062-1.125.438-2.125.75-3 .938-1.063.25-2 .312-2.813.187a30.031 30.031 0 0 1-.844-2.812c-.25-.938-.437-2.25-.562-3.938a169.833 169.833 0 0 1-.094-6.281c0-2.563.094-5.844.281-9.844.063-.437.094-.875.094-1.312 0-.438.031-.875.094-1.313-.563-.062-1.156-.125-1.781-.187l-1.688-.188c-.375-1-.625-1.875-.75-2.625-.125-.812-.187-1.468-.187-1.968 0-.626.062-1.126.187-1.5 1 .187 2 .28 3 .28h1.406c.126-2.624.25-5.28.376-7.968.124-2.75.218-5.406.28-7.969.126-2.625.22-5.093.282-7.406.063-2.375.125-4.531.188-6.469-1.876 1.25-3.5 2.875-4.876 4.875-1.374 2-2.312 4.313-2.812 6.938-.813-.125-1.5-.5-2.063-1.125a13.424 13.424 0 0 1-1.406-2.063 15.432 15.432 0 0 1-1.125-2.718 6.886 6.886 0 0 1 0-3.563c.313-1.25.782-2.406 1.407-3.469.624-1.125 1.343-2.094 2.156-2.906.812-.875 1.593-1.563 2.343-2.063a35.793 35.793 0 0 1 4.032-2.156c1.437-.687 3.031-1.25 4.781-1.687a16.275 16.275 0 0 1 2.25-1.875c.875-.563 1.688-.906 2.438-1.031 1.062-.25 1.656.406 1.78 1.968a16.143 16.143 0 0 1 1.782-.094 19.801 19.801 0 0 1 1.969-.093c2.375 0 4.843.375 7.406 1.125a20.448 20.448 0 0 1 7.031 3.656c2.188 1.625 3.969 3.781 5.344 6.469 1.375 2.625 2.063 5.844 2.063 9.656 0 4.313-1.032 8.281-3.094 11.906-2 3.625-4.875 6.625-8.625 9 .437 1.125 1 2.532 1.687 4.219a82.812 82.812 0 0 1 2.063 5.719c1 2.625 2.062 5.093 3.187 7.406 1.188 2.25 2.407 4.219 3.657 5.906 1.25 1.688 2.562 3.031 3.937 4.031 1.375 1.063 2.75 1.688 4.125 1.876-.813 1.25-1.75 2.124-2.813 2.624-1.062.5-2.124.813-3.187.938-1.188.188-2.438.188-3.75 0-1.813-.375-3.375-1.25-4.688-2.625-1.312-1.375-2.468-3.031-3.468-4.969-.938-1.937-1.813-4-2.625-6.187-.75-2.25-1.438-4.375-2.063-6.375ZM21.531 17.406c0 1.375-.031 3.032-.093 4.969-.063 1.938-.125 4.031-.188 6.281 0 2.25-.031 4.625-.094 7.125a285.734 285.734 0 0 0-.093 7.313c1.687-.25 3.53-.657 5.53-1.219a16.847 16.847 0 0 0 5.72-2.813c1.75-1.312 3.218-3.062 4.406-5.25 1.187-2.187 1.781-5 1.781-8.437 0-2.625-.469-4.844-1.406-6.656-.875-1.875-2.032-3.375-3.469-4.5a13.081 13.081 0 0 0-4.781-2.531 15.926 15.926 0 0 0-5.063-.844h-.937c-.313 0-.657.031-1.032.094-.187 2-.28 4.156-.28 6.468Zm44.25 50.625c-4.375 0-7.75-1.469-10.125-4.406-2.375-2.938-3.562-6.781-3.562-11.531 0-3.313.468-6.407 1.406-9.282 1-2.937 2.313-5.468 3.938-7.593 1.624-2.125 3.5-3.782 5.624-4.969 2.188-1.25 4.47-1.875 6.844-1.875 2.313 0 4.281.844 5.906 2.531 1.626 1.625 2.438 3.969 2.438 7.032 0 2-.438 4-1.313 6a19.652 19.652 0 0 1-3.468 5.25c-1.375 1.5-2.906 2.718-4.594 3.656-1.688.937-3.313 1.406-4.875 1.406-1 0-1.844-.125-2.531-.375a5.769 5.769 0 0 1-1.875-1.125c.187 3.563.968 6.063 2.343 7.5 1.376 1.375 3.157 2.063 5.344 2.063 1.5 0 2.813-.313 3.938-.938 1.187-.625 2.187-1.344 3-2.156.812-.813 1.469-1.625 1.969-2.438.5-.875.843-1.531 1.03-1.968.188-.376.5-.563.938-.563.5 0 .75.375.75 1.125 0 .688-.25 1.75-.75 3.188-.437 1.374-1.187 2.78-2.25 4.218-1.062 1.375-2.437 2.594-4.125 3.657-1.625 1.062-3.625 1.593-6 1.593Zm4.313-35.625c-.375 0-1.094.407-2.156 1.219-1 .75-2.094 1.875-3.282 3.375-1.125 1.5-2.187 3.313-3.187 5.438-.938 2.062-1.532 4.406-1.782 7.03 3.75-.874 6.72-2.25 8.907-4.124 2.187-1.875 3.281-4.625 3.281-8.25 0-1.813-.219-3.032-.656-3.657-.438-.687-.813-1.03-1.125-1.03Zm29.062 16.782c1.375.5 2.688.968 3.938 1.406 1.25.437 2.344.968 3.281 1.593.937.626 1.687 1.376 2.25 2.25.563.813.844 1.844.844 3.094 0 1.5-.344 2.907-1.031 4.219-.626 1.313-1.563 2.469-2.813 3.469-1.25 1-2.781 1.781-4.594 2.344-1.75.624-3.719.937-5.906.937-2.438 0-4.406-.25-5.906-.75-1.5-.438-2.656-.969-3.469-1.594-.813-.625-1.344-1.25-1.594-1.875s-.375-1.125-.375-1.5c0-.75.156-1.562.469-2.437.313-.938.906-1.938 1.781-3 .375-.438.781-.844 1.219-1.219.875-.75 1.75-1.219 2.625-1.406-.125 1.437.031 2.625.469 3.562.5.875 1.125 1.563 1.875 2.063.812.5 1.687.843 2.625 1.031 1 .188 1.937.281 2.812.281.875 0 1.75-.125 2.625-.375a13.32 13.32 0 0 0 2.531-.937c.75-.438 1.344-.907 1.782-1.407.5-.562.75-1.156.75-1.78 0-.688-.282-1.25-.844-1.688-.562-.438-1.281-.782-2.156-1.032a11.559 11.559 0 0 0-2.719-.656c-.938-.187-1.844-.375-2.719-.562-.875-.188-2.062-.438-3.562-.75a20.527 20.527 0 0 1-4.313-1.688 12.858 12.858 0 0 1-3.656-3c-1-1.25-1.5-2.906-1.5-4.968 0-2.376.594-4.438 1.781-6.188 1.25-1.813 2.75-3.313 4.5-4.5 1.813-1.25 3.719-2.188 5.719-2.813 2-.625 3.781-.937 5.344-.937.812 0 1.687.125 2.625.375a6.982 6.982 0 0 1 2.625 1.125 5.682 5.682 0 0 1 1.969 2.063c.562.875.843 2 .843 3.375 0 1.374-.125 2.5-.375 3.374-.187.813-.5 1.47-.937 1.97a2.528 2.528 0 0 1-1.407.843c-.562.125-1.218.188-1.968.188-.5 0-.969-.063-1.406-.188-.376-.125-.782-.25-1.219-.375a3.314 3.314 0 0 1-1.219-.656c.625-.75 1.094-1.469 1.406-2.157.375-.687.563-1.53.563-2.53 0-.876-.25-1.657-.75-2.344-.438-.688-1.188-1.032-2.25-1.032a8.541 8.541 0 0 0-3.281.657 9.737 9.737 0 0 0-2.72 1.78 10.01 10.01 0 0 0-1.874 2.626c-.438.937-.656 1.968-.656 3.093 0 1.688.624 3.282 1.874 4.782 1.313 1.5 3.344 2.781 6.094 3.843Zm51-23.907c-.687-.125-1.625-.25-2.812-.375a59.994 59.994 0 0 0-3.469-.281 97.317 97.317 0 0 0-4.406-.094c-1.563-.125-3.531-.125-5.907 0-2.312.063-4.75.094-7.312.094a69.023 69.023 0 0 1-.375 4.969c-.125 1.687-.25 3.343-.375 4.968-.312 3-.594 6.063-.844 9.188a149.412 149.412 0 0 0-.281 8.906c0 2.813.156 5.375.469 7.688.375 2.25 1.031 4.031 1.968 5.343-.75.563-1.562 1-2.437 1.313-.875.25-1.656.438-2.344.563-.812.187-1.625.28-2.437.28-.75 0-1.375-.25-1.875-.75s-.781-1.374-.844-2.624a72.502 72.502 0 0 1-.094-6.375c.125-2.188.25-4.469.375-6.844.188-2.375.375-4.906.563-7.594.187-2.75.375-5.75.562-9 .188-3.375.281-6.656.281-9.843a234.16 234.16 0 0 1-6 .093c-1.624 0-2.531-.031-2.718-.093-.188-.125-.406-.407-.656-.844-.25-.375-.563-.938-.938-1.688-.438-.75-.969-1.812-1.594-3.187h3.938c1.375 0 2.656-.032 3.844-.094l4.124-.188c-.062-1-.093-2.062-.093-3.187a40.75 40.75 0 0 1-.094-2.906c0-1.125-.031-2.156-.094-3.094 0-.375.438-.813 1.313-1.313a22.33 22.33 0 0 1 3-1.5c1.062-.437 2.031-.718 2.906-.843.938-.125 1.406.093 1.406.656 0 .563-.031 1.938-.094 4.125 0 2.125-.062 4.719-.187 7.781.625 0 1.094-.031 1.406-.093a338.53 338.53 0 0 0 7.969-.375c2.062-.188 3.75-.22 5.062-.094 1.313.125 2.469.437 3.469.937s2.125 1.313 3.375 2.438c.438.375.813.781 1.125 1.218.313.375.563.813.75 1.313.25.438.375.906.375 1.406Zm10.125 25.594c-.125 2.438-.562 4.688-1.312 6.75-.688 2.063-1.657 3.875-2.907 5.438a13.87 13.87 0 0 1-4.5 3.562c-1.687.875-3.562 1.344-5.624 1.406-1.813.063-3.532-.375-5.157-1.312-1.562-.938-2.937-2.25-4.125-3.938-1.187-1.687-2.094-3.687-2.718-6-.563-2.375-.719-4.937-.469-7.687.187-3.188.781-5.907 1.781-8.157 1-2.312 2.062-4.218 3.188-5.718 1.124-1.5 2.156-2.594 3.093-3.282 1-.75 1.625-1.187 1.875-1.312.438-.188.844-.219 1.219-.094.375.063.781.157 1.219.282.125.062.25.218.375.468.25.438.406 1.25.469 2.438.312-.688.718-1.25 1.218-1.688.5-.437 1-.75 1.5-.937a6.877 6.877 0 0 1 1.875-.469c.438-.063 1.188.281 2.25 1.031 1.125.75 2.188 1.938 3.188 3.563 1.062 1.625 1.969 3.75 2.719 6.375.75 2.562 1.031 5.656.843 9.281Zm-6.375-1.125c.063-1.5 0-3-.187-4.5-.125-1.563-.375-2.969-.75-4.219-.313-1.312-.719-2.343-1.219-3.093-.5-.813-1-1.22-1.5-1.22-.562.126-1.188.407-1.875.844-.563.376-1.187.97-1.875 1.782s-1.344 1.968-1.969 3.468c-.062-.187-.125-.53-.187-1.03-.063-.438-.125-1-.188-1.688 0-.75.063-1.75.188-3-.875 1.062-1.563 2.312-2.063 3.75a39.861 39.861 0 0 0-1.031 4.125 59.407 59.407 0 0 0-.562 4.687c-.063 1.688 0 3.344.187 4.969.25 1.625.625 3.063 1.125 4.313.562 1.25 1.219 2.25 1.969 3s1.656 1.093 2.719 1.03c1.062-.062 2-.5 2.812-1.312.812-.812 1.531-1.843 2.156-3.093.625-1.25 1.125-2.657 1.5-4.22.375-1.562.625-3.093.75-4.593Z"/></svg><svg viewBox="0 0 121 59" id="logo-resto-mob" xmlns="http://www.w3.org/2000/svg"><path d="M24.305 42.758a50.2 50.2 0 0 0-1.407-3.867 98.825 98.825 0 0 0-1.125-2.883c-1.828.61-3.82 1.031-5.976 1.265 0 3 .07 5.555.21 7.664.048 1.313.095 2.438.141 3.376.094.89.165 1.664.211 2.32.094.656.188 1.242.282 1.758.093.562.234 1.101.422 1.617-.938.703-1.852 1.219-2.743 1.547-.843.328-1.593.562-2.25.703-.797.187-1.5.234-2.11.14a22.495 22.495 0 0 1-.632-2.109c-.187-.703-.328-1.687-.422-2.953-.047-1.219-.07-2.79-.07-4.711 0-1.922.07-4.383.21-7.383.048-.328.071-.656.071-.984 0-.328.024-.656.07-.985-.421-.046-.867-.093-1.335-.14l-1.266-.14c-.281-.75-.469-1.407-.563-1.97-.093-.609-.14-1.101-.14-1.476 0-.469.047-.844.14-1.125.75.14 1.5.21 2.25.21h1.055c.094-1.968.188-3.96.281-5.976.094-2.062.164-4.054.211-5.976.094-1.97.164-3.82.211-5.555.047-1.781.094-3.398.14-4.852-1.405.938-2.624 2.157-3.655 3.657-1.032 1.5-1.735 3.234-2.11 5.203a2.548 2.548 0 0 1-1.547-.844 10.072 10.072 0 0 1-1.054-1.547c-.328-.61-.61-1.289-.844-2.039a5.165 5.165 0 0 1 0-2.672A9.777 9.777 0 0 1 2.016 9.43a9.76 9.76 0 0 1 1.617-2.18c.61-.656 1.195-1.172 1.758-1.547a26.849 26.849 0 0 1 3.023-1.617A18.946 18.946 0 0 1 12 2.82a12.204 12.204 0 0 1 1.688-1.406c.656-.422 1.265-.68 1.828-.773.796-.188 1.242.304 1.336 1.476.421-.047.867-.07 1.335-.07.47-.047.961-.07 1.477-.07 1.781 0 3.633.28 5.555.843a15.337 15.337 0 0 1 5.273 2.743c1.64 1.218 2.977 2.835 4.008 4.851 1.031 1.969 1.547 4.383 1.547 7.242 0 3.235-.774 6.211-2.32 8.93-1.5 2.719-3.657 4.969-6.47 6.75.329.844.75 1.898 1.266 3.164a62.043 62.043 0 0 1 1.547 4.29 68.218 68.218 0 0 0 2.39 5.554c.892 1.687 1.806 3.164 2.743 4.43.938 1.265 1.922 2.273 2.953 3.023 1.032.797 2.063 1.266 3.094 1.406-.61.938-1.313 1.594-2.11 1.969a7.718 7.718 0 0 1-2.39.703c-.89.14-1.828.14-2.813 0-1.359-.281-2.53-.938-3.515-1.969-.985-1.031-1.852-2.273-2.602-3.726-.703-1.453-1.36-3-1.968-4.64a266.741 266.741 0 0 1-1.547-4.782Zm-8.157-29.953c0 1.03-.023 2.273-.07 3.726-.047 1.453-.094 3.024-.14 4.711 0 1.688-.024 3.469-.07 5.344-.048 1.828-.071 3.656-.071 5.484 1.265-.187 2.648-.492 4.148-.914a12.634 12.634 0 0 0 4.29-2.11c1.312-.983 2.413-2.296 3.304-3.937.89-1.64 1.336-3.75 1.336-6.328 0-1.968-.352-3.633-1.055-4.992-.656-1.406-1.523-2.531-2.601-3.375a9.813 9.813 0 0 0-3.586-1.898 11.944 11.944 0 0 0-3.797-.633h-.703c-.235 0-.492.023-.774.07-.14 1.5-.21 3.117-.21 4.852Zm33.188 37.968c-3.281 0-5.813-1.101-7.594-3.304-1.781-2.203-2.672-5.086-2.672-8.649 0-2.484.352-4.804 1.055-6.96.75-2.204 1.734-4.102 2.953-5.696 1.219-1.594 2.625-2.836 4.219-3.727 1.64-.937 3.351-1.406 5.133-1.406 1.734 0 3.21.633 4.43 1.899 1.218 1.218 1.828 2.976 1.828 5.273 0 1.5-.329 3-.985 4.5a14.736 14.736 0 0 1-2.601 3.938 13.663 13.663 0 0 1-3.446 2.742c-1.265.703-2.484 1.054-3.656 1.054-.75 0-1.383-.093-1.898-.28a4.326 4.326 0 0 1-1.407-.844c.14 2.671.727 4.546 1.758 5.624 1.031 1.032 2.367 1.547 4.008 1.547 1.125 0 2.11-.234 2.953-.703.89-.468 1.64-1.008 2.25-1.617a10.11 10.11 0 0 0 1.477-1.828c.375-.656.632-1.148.773-1.477.14-.28.375-.422.703-.422.375 0 .563.282.563.844 0 .516-.188 1.313-.563 2.39-.328 1.032-.89 2.087-1.687 3.165-.797 1.031-1.828 1.945-3.094 2.742-1.219.797-2.719 1.195-4.5 1.195Zm3.234-26.718c-.28 0-.82.304-1.617.914-.75.562-1.57 1.406-2.46 2.531-.845 1.125-1.641 2.484-2.391 4.078-.704 1.547-1.149 3.305-1.336 5.274 2.812-.657 5.039-1.688 6.68-3.094 1.64-1.406 2.46-3.469 2.46-6.188 0-1.36-.164-2.273-.492-2.742-.328-.515-.61-.773-.844-.773ZM74.367 36.64c1.031.375 2.016.726 2.953 1.054.938.328 1.758.727 2.461 1.196a5.788 5.788 0 0 1 1.688 1.687c.422.61.633 1.383.633 2.32 0 1.125-.258 2.18-.774 3.164-.469.985-1.172 1.852-2.11 2.602-.937.75-2.085 1.336-3.445 1.758-1.312.469-2.789.703-4.43.703-1.827 0-3.304-.188-4.429-.563-1.125-.328-1.992-.726-2.602-1.195-.609-.469-1.007-.937-1.195-1.406-.187-.469-.281-.844-.281-1.125 0-.563.117-1.172.352-1.828.234-.703.68-1.453 1.335-2.25a8.42 8.42 0 0 1 .915-.914c.656-.563 1.312-.914 1.968-1.055-.094 1.078.024 1.969.352 2.672.375.656.844 1.172 1.406 1.547.61.375 1.266.633 1.969.773.75.14 1.453.211 2.11.211.655 0 1.312-.094 1.968-.281a9.997 9.997 0 0 0 1.898-.703c.563-.328 1.008-.68 1.336-1.055.375-.422.563-.867.563-1.336 0-.515-.211-.937-.633-1.265-.422-.329-.96-.586-1.617-.774a8.669 8.669 0 0 0-2.04-.492c-.702-.14-1.382-.281-2.038-.422-.657-.14-1.547-.328-2.672-.562a15.4 15.4 0 0 1-3.235-1.266 9.645 9.645 0 0 1-2.742-2.25c-.75-.938-1.125-2.18-1.125-3.727 0-1.78.446-3.328 1.336-4.64a12.838 12.838 0 0 1 3.375-3.375 15.86 15.86 0 0 1 4.29-2.11c1.5-.468 2.835-.703 4.007-.703.61 0 1.266.094 1.969.282.703.14 1.36.421 1.969.843a4.26 4.26 0 0 1 1.476 1.547c.422.656.633 1.5.633 2.531 0 1.032-.094 1.875-.281 2.532-.14.609-.375 1.101-.703 1.476a1.897 1.897 0 0 1-1.055.633c-.422.094-.914.14-1.477.14-.375 0-.726-.046-1.054-.14a21.926 21.926 0 0 0-.914-.281 2.488 2.488 0 0 1-.915-.492c.47-.563.82-1.102 1.055-1.618.281-.515.422-1.148.422-1.898 0-.656-.187-1.242-.562-1.758-.329-.515-.891-.773-1.688-.773-.844 0-1.664.164-2.46.492-.75.328-1.43.773-2.04 1.336a7.508 7.508 0 0 0-1.406 1.969 5.419 5.419 0 0 0-.492 2.32c0 1.265.468 2.46 1.406 3.586.984 1.125 2.508 2.086 4.57 2.883Zm38.25-17.93a29.934 29.934 0 0 0-2.109-.281 44.858 44.858 0 0 0-2.602-.211 72.933 72.933 0 0 0-3.304-.07c-1.172-.094-2.649-.094-4.43 0-1.734.046-3.563.07-5.484.07a51.734 51.734 0 0 1-.282 3.726c-.094 1.266-.187 2.508-.281 3.727a288.74 288.74 0 0 0-.633 6.89 111.77 111.77 0 0 0-.21 6.68c0 2.11.116 4.031.35 5.766.282 1.687.774 3.023 1.477 4.008a6.897 6.897 0 0 1-1.828.984c-.656.188-1.242.328-1.758.422-.609.14-1.218.21-1.828.21-.562 0-1.03-.187-1.406-.562-.375-.375-.586-1.03-.633-1.968a54.28 54.28 0 0 1-.07-4.782c.094-1.64.187-3.351.281-5.133.14-1.78.281-3.68.422-5.695.14-2.062.281-4.312.422-6.75.14-2.531.21-4.992.21-7.383-1.78.047-3.28.07-4.5.07-1.218 0-1.898-.023-2.038-.07-.14-.093-.305-.304-.492-.632a12.528 12.528 0 0 1-.704-1.266c-.328-.563-.726-1.36-1.195-2.39h2.953c1.032 0 1.993-.024 2.883-.071l3.094-.14c-.047-.75-.07-1.547-.07-2.391a30.776 30.776 0 0 1-.07-2.18c0-.844-.024-1.617-.071-2.32 0-.282.328-.61.984-.985a16.787 16.787 0 0 1 2.25-1.125c.797-.328 1.524-.539 2.18-.632.703-.094 1.055.07 1.055.492s-.024 1.453-.07 3.093c0 1.594-.047 3.54-.141 5.836.469 0 .82-.023 1.054-.07 2.485-.094 4.477-.187 5.977-.281 1.547-.14 2.812-.164 3.797-.07.984.093 1.851.328 2.601.703.75.375 1.594.984 2.532 1.828.328.281.609.586.843.914.235.281.422.61.563.984.187.328.281.68.281 1.055Zm7.594 19.195c-.094 1.828-.422 3.516-.984 5.063-.516 1.547-1.243 2.906-2.18 4.078a10.413 10.413 0 0 1-3.375 2.672c-1.266.656-2.672 1.008-4.219 1.054-1.359.047-2.648-.28-3.867-.984-1.172-.703-2.203-1.687-3.094-2.953-.89-1.266-1.57-2.766-2.039-4.5-.422-1.781-.539-3.703-.351-5.766.14-2.39.586-4.43 1.336-6.117.75-1.734 1.546-3.164 2.39-4.289.844-1.125 1.617-1.945 2.32-2.46.75-.563 1.219-.892 1.407-.985.328-.14.633-.164.914-.07.281.046.586.117.914.21.094.047.187.164.281.352.188.328.305.937.352 1.828.234-.516.539-.937.914-1.266.375-.328.75-.562 1.125-.703a5.144 5.144 0 0 1 1.406-.351c.328-.047.891.21 1.687.773.844.563 1.641 1.453 2.391 2.672.797 1.219 1.477 2.813 2.039 4.781.563 1.922.774 4.242.633 6.961Zm-4.781-.843c.047-1.126 0-2.25-.141-3.376-.094-1.171-.281-2.226-.562-3.164-.235-.984-.539-1.757-.915-2.32-.374-.61-.75-.914-1.124-.914-.422.094-.891.305-1.407.633-.422.281-.89.726-1.406 1.336-.516.61-1.008 1.476-1.477 2.601-.046-.14-.093-.398-.14-.773-.047-.328-.094-.75-.141-1.266 0-.562.047-1.312.141-2.25-.656.797-1.172 1.735-1.547 2.813a29.709 29.709 0 0 0-.773 3.094 44.319 44.319 0 0 0-.422 3.515 24.61 24.61 0 0 0 .14 3.727c.188 1.218.469 2.297.844 3.234.422.938.914 1.688 1.477 2.25a2.55 2.55 0 0 0 2.039.774c.796-.047 1.5-.375 2.109-.985s1.148-1.383 1.617-2.32c.469-.938.844-1.992 1.125-3.164a22.98 22.98 0 0 0 .563-3.446Z"/></svg><svg viewBox="0 0 27 24" id="map" xmlns="http://www.w3.org/2000/svg"><path d="M13.2 14c2.427 0 4.4-1.794 4.4-4s-1.973-4-4.4-4c-2.427 0-4.4 1.794-4.4 4s1.973 4 4.4 4Zm0-6c1.213 0 2.2.897 2.2 2s-.987 2-2.2 2-2.2-.897-2.2-2 .987-2 2.2-2Z"/><path d="M12.562 21.814c.186.12.41.186.638.186.229 0 .452-.065.638-.186C14.172 21.599 22.032 16.44 22 10c0-4.411-3.948-8-8.8-8S4.4 5.589 4.4 9.995c-.032 6.445 7.828 11.604 8.162 11.819ZM13.2 4c3.64 0 6.6 2.691 6.6 6.005.023 4.438-4.827 8.423-6.6 9.73-1.772-1.308-6.623-5.294-6.6-9.735 0-3.309 2.96-6 6.6-6Z"/></svg><svg viewBox="0 0 37 35" id="map-marker" xmlns="http://www.w3.org/2000/svg"><path d="M18.086 0C10.556 0 4.451 5.907 4.451 13.193c0 2.437.493 4.954 1.907 6.768L18.086 35l11.728-15.04c1.285-1.647 1.908-4.56 1.908-6.767C31.722 5.907 25.617 0 18.086 0Zm0 7.641c3.169 0 5.738 2.486 5.738 5.552 0 3.066-2.57 5.552-5.738 5.552-3.168 0-5.738-2.486-5.738-5.552 0-3.066 2.57-5.552 5.738-5.552Z"/></svg><svg viewBox="0 0 40 40" id="menu-bar" xmlns="http://www.w3.org/2000/svg"><path d="M6.667 20a1.667 1.667 0 0 0 1.666 1.667h25a1.667 1.667 0 0 0 0-3.334h-25A1.667 1.667 0 0 0 6.667 20ZM20 8.333A1.667 1.667 0 0 0 21.667 10h11.666a1.667 1.667 0 0 0 0-3.333H21.667A1.667 1.667 0 0 0 20 8.333Zm-6.667 23.334A1.667 1.667 0 0 0 15 33.333h18.333a1.667 1.667 0 0 0 0-3.333H15a1.667 1.667 0 0 0-1.667 1.667Z"/></svg><svg viewBox="0 0 24 24" id="menu-close" xmlns="http://www.w3.org/2000/svg"><path d="m13.567 12 9.21-9.211a1.111 1.111 0 0 0-1.566-1.567L12 10.433 2.789 1.211A1.116 1.116 0 1 0 1.21 2.79L10.433 12l-9.222 9.211a1.111 1.111 0 1 0 1.567 1.567L12 13.567l9.211 9.21a1.111 1.111 0 0 0 1.567-1.566L13.567 12Z"/></svg><svg viewBox="0 0 32 30" id="phone" xmlns="http://www.w3.org/2000/svg"><path d="M23.254 12.188h-1.938a2.77 2.77 0 0 0-.852-1.988 2.96 2.96 0 0 0-2.055-.825V7.5a4.934 4.934 0 0 1 3.424 1.375 4.618 4.618 0 0 1 1.42 3.313Z"/><path d="M27.13 12.188h-1.938a6.464 6.464 0 0 0-1.99-4.639 6.907 6.907 0 0 0-4.793-1.924V3.75a8.88 8.88 0 0 1 6.164 2.474 8.31 8.31 0 0 1 2.556 5.963Zm-1.938 15h-.165C5.987 26.128 3.285 10.584 2.907 5.84c-.06-.744.19-1.48.691-2.046a2.941 2.941 0 0 1 2.215-.982h5.107c.388 0 .767.112 1.088.322.322.21.57.51.714.859L14.195 7.5c.141.34.176.714.1 1.074-.075.36-.258.691-.527.951l-2.064 2.016a8.683 8.683 0 0 0 2.512 4.682 9.173 9.173 0 0 0 4.833 2.443l2.102-2.016a1.96 1.96 0 0 1 .992-.498c.374-.069.76-.03 1.11.114l3.654 1.415c.355.144.658.386.87.697.212.31.324.675.321 1.047v4.95c0 .746-.306 1.461-.851 1.989a2.957 2.957 0 0 1-2.055.823ZM5.813 4.688a.997.997 0 0 0-.686.272.936.936 0 0 0-.285.662c0 .026 0 .052.003.078.445 5.55 3.304 18.675 20.288 19.613a.99.99 0 0 0 .701-.235.926.926 0 0 0 .325-.645l.002-.058v-4.95l-3.653-1.416-2.781 2.672-.465-.056c-8.43-1.022-9.573-9.178-9.573-9.262l-.058-.45 2.752-2.691-1.454-3.534H5.813Z"/></svg><svg viewBox="0 0 50 50" id="rocket" xmlns="http://www.w3.org/2000/svg"><path d="M43.583 4.958a32.75 32.75 0 0 0-7.125-.791 17.209 17.209 0 0 0-12.5 4.291 1501.702 1501.702 0 0 0-6.645 6.688c-2.521-.271-8.5-.417-12.5 3.625a2.084 2.084 0 0 0 0 2.937l23.541 23.584a2.083 2.083 0 0 0 2.938 0c4.062-4.167 3.937-10.042 3.687-12.5l6.688-6.667c6.645-6.646 3.625-19.125 3.5-19.646a2.084 2.084 0 0 0-1.584-1.52Zm-4.916 18.23-7.417 7.375a2.083 2.083 0 0 0-.563 1.875c.45 2.787.059 5.645-1.125 8.208L9.418 20.458a13.896 13.896 0 0 1 8.333-1.041 2.084 2.084 0 0 0 1.813-.667s2.916-3.02 7.312-7.417a13.771 13.771 0 0 1 9.583-3c1.627.008 3.25.148 4.855.417.5 2.98 1.291 10.5-2.646 14.438Z"/><path d="M32.77 21.458a4.167 4.167 0 1 0 .001-8.333 4.167 4.167 0 0 0 0 8.333ZM10.417 33.333C6.25 35.417 6.25 43.75 6.25 43.75a16.27 16.27 0 0 0 10.417-4.167l-6.25-6.25Z"/></svg><svg viewBox="0 0 50 50" id="support" xmlns="http://www.w3.org/2000/svg"><path d="M25 4.167C13.512 4.167 4.167 13.512 4.167 25v8.631c0 2.134 1.868 3.869 4.166 3.869h2.084a2.083 2.083 0 0 0 2.083-2.083V24.702a2.083 2.083 0 0 0-2.083-2.083H8.525C9.683 14.556 16.621 8.333 25 8.333c8.38 0 15.317 6.223 16.475 14.286h-1.892a2.083 2.083 0 0 0-2.083 2.083V37.5a4.17 4.17 0 0 1-4.167 4.167h-4.166v-2.084h-8.334v6.25h12.5c4.596 0 8.334-3.737 8.334-8.333 2.298 0 4.166-1.735 4.166-3.869V25c0-11.488-9.346-20.833-20.833-20.833Z"/></svg><svg viewBox="0 0 20 21" id="twitter" xmlns="http://www.w3.org/2000/svg"><g clip-path="url(#ta)"><path d="M20 2.578a7.07 7.07 0 0 1-2.357.792c.848-.622 1.498-1.607 1.804-2.78a7.376 7.376 0 0 1-2.605 1.219C16.093.832 15.027.222 13.847.222c-2.266 0-4.104 2.25-4.104 5.026 0 .393.037.777.107 1.145-3.41-.21-6.434-2.21-8.458-5.251a5.888 5.888 0 0 0-.555 2.526c0 1.744.724 3.282 1.825 4.184a3.535 3.535 0 0 1-1.858-.629v.063c0 2.435 1.414 4.467 3.29 4.928a3.38 3.38 0 0 1-1.852.087c.522 1.996 2.037 3.45 3.833 3.49C4.67 17.14 2.9 17.942.979 17.942c-.331 0-.658-.023-.979-.07 1.816 1.426 3.973 2.258 6.29 2.258 7.547 0 11.674-7.658 11.674-14.3 0-.218-.003-.434-.011-.65A9.614 9.614 0 0 0 20 2.578Z"/></g><defs><clipPath id="ta"><path transform="translate(0 .143)" d="M0 0h20v20H0z"/></clipPath></defs></svg><svg viewBox="0 0 53 50" id="whatsapp" xmlns="http://www.w3.org/2000/svg"><g clip-path="url(#ua)"><path fill-rule="evenodd" clip-rule="evenodd" d="M38.182 29.963c-.641-.31-3.787-1.807-4.373-2.015-.585-.206-1.012-.308-1.44.313-.426.616-1.652 2.012-2.024 2.425-.375.414-.747.464-1.387.156-.64-.313-2.702-.965-5.146-3.073-1.9-1.642-3.186-3.669-3.559-4.29-.372-.619-.04-.954.28-1.262.289-.277.64-.723.96-1.084.321-.362.427-.62.64-1.035.215-.412.108-.773-.054-1.083-.16-.31-1.438-3.359-1.972-4.598-.52-1.207-1.047-1.042-1.438-1.063-.375-.016-.802-.02-1.228-.02-.426 0-1.12.154-1.705.774-.588.62-2.24 2.117-2.24 5.165 0 3.046 2.292 5.99 2.612 6.404.321.413 4.511 6.667 10.93 9.348a37.38 37.38 0 0 0 3.647 1.302c1.533.473 2.928.406 4.03.246 1.228-.177 3.786-1.498 4.32-2.944.532-1.446.532-2.685.373-2.943-.16-.259-.586-.413-1.228-.723h.002ZM26.508 45.385H26.5c-3.813.001-7.555-.99-10.835-2.87l-.775-.446-8.057 2.046 2.15-7.6-.505-.78a20.055 20.055 0 0 1-3.254-10.958C5.23 13.423 14.776 4.186 26.517 4.186c5.684 0 11.028 2.145 15.046 6.037a20.438 20.438 0 0 1 4.621 6.681 19.892 19.892 0 0 1 1.606 7.888c-.005 11.354-9.552 20.593-21.282 20.593ZM44.62 7.267a25.508 25.508 0 0 0-8.304-5.39A26.182 26.182 0 0 0 26.506 0C12.394 0 .906 11.115.9 24.775a24.102 24.102 0 0 0 3.417 12.386L.686 50l13.573-3.447a26.26 26.26 0 0 0 12.238 3.017h.011c14.112 0 25.6-11.115 25.605-24.777a23.932 23.932 0 0 0-1.932-9.49 24.59 24.59 0 0 0-5.56-8.037Z"/></g><defs><clipPath id="ua"><path transform="translate(.686)" d="M0 0h51.675v50H0z"/></clipPath></defs></svg></svg>