<svg width="28" height="28" viewBox="0 0 28 28" fill="none" xmlns="http://www.w3.org/2000/svg">
<path fill-rule="evenodd" clip-rule="evenodd" d="M8.19036 0.3325C9.63448 0.265 10.0949 0.25 13.7736 0.25C17.4522 0.25 17.9126 0.26625 19.3555 0.3325C20.7984 0.39875 21.7833 0.6325 22.6451 0.97125C23.5475 1.3175 24.3662 1.85875 25.0434 2.55875C25.7328 3.245 26.2646 4.075 26.6044 4.9925C26.9393 5.8675 27.1683 6.8675 27.2348 8.33C27.3013 9.79875 27.316 10.2663 27.316 14C27.316 17.735 27.3 18.2025 27.2348 19.6687C27.1695 21.1312 26.9393 22.1312 26.6044 23.0062C26.2646 23.9239 25.7319 24.7552 25.0434 25.4425C24.3662 26.1425 23.5475 26.6825 22.6451 27.0275C21.7833 27.3675 20.7984 27.6 19.358 27.6675C17.9126 27.735 17.4522 27.75 13.7736 27.75C10.0949 27.75 9.63448 27.7338 8.19036 27.6675C6.74994 27.6013 5.76503 27.3675 4.90323 27.0275C3.99948 26.6825 3.18066 26.1416 2.50375 25.4425C1.81479 24.7558 1.28162 23.9249 0.941444 23.0075C0.607806 22.1325 0.378815 21.1325 0.312334 19.67C0.245853 18.2012 0.231079 17.7337 0.231079 14C0.231079 10.265 0.247084 9.7975 0.312334 8.3325C0.377584 6.8675 0.607806 5.8675 0.941444 4.9925C1.28213 4.0751 1.8157 3.24414 2.50498 2.5575C3.18093 1.85813 3.99893 1.3168 4.902 0.97125C5.7638 0.6325 6.7487 0.4 8.18913 0.3325H8.19036ZM19.2459 2.8075C17.8178 2.74125 17.3894 2.7275 13.7736 2.7275C10.1577 2.7275 9.72928 2.74125 8.30116 2.8075C6.98016 2.86875 6.26364 3.0925 5.78596 3.28125C5.15439 3.53125 4.70256 3.8275 4.22857 4.30875C3.77926 4.75256 3.43348 5.29285 3.21658 5.89C3.03068 6.375 2.81031 7.1025 2.74998 8.44375C2.68473 9.89375 2.67119 10.3287 2.67119 14C2.67119 17.6713 2.68473 18.1062 2.74998 19.5562C2.81031 20.8975 3.03068 21.625 3.21658 22.11C3.43326 22.7063 3.77921 23.2475 4.22857 23.6913C4.66563 24.1475 5.19871 24.4988 5.78596 24.7188C6.26364 24.9075 6.98016 25.1313 8.30116 25.1925C9.72928 25.2588 10.1565 25.2725 13.7736 25.2725C17.3906 25.2725 17.8178 25.2588 19.2459 25.1925C20.567 25.1313 21.2835 24.9075 21.7612 24.7188C22.3927 24.4688 22.8446 24.1725 23.3185 23.6913C23.7679 23.2475 24.1139 22.7063 24.3305 22.11C24.5164 21.625 24.7368 20.8975 24.7971 19.5562C24.8624 18.1062 24.8759 17.6713 24.8759 14C24.8759 10.3287 24.8624 9.89375 24.7971 8.44375C24.7368 7.1025 24.5164 6.375 24.3305 5.89C24.0843 5.24875 23.7925 4.79 23.3185 4.30875C22.8814 3.85259 22.3493 3.50151 21.7612 3.28125C21.2835 3.0925 20.567 2.86875 19.2459 2.8075V2.8075ZM12.0438 18.2387C13.0098 18.647 14.0855 18.7021 15.0871 18.3947C16.0887 18.0872 16.9541 17.4361 17.5354 16.5528C18.1168 15.6695 18.3781 14.6086 18.2746 13.5514C18.1712 12.4942 17.7095 11.5062 16.9684 10.7562C16.4959 10.2768 15.9246 9.90977 15.2956 9.68143C14.6667 9.4531 13.9957 9.3692 13.331 9.43577C12.6662 9.50234 12.0243 9.71772 11.4514 10.0664C10.8785 10.4151 10.3889 10.8884 10.0177 11.4523C9.64662 12.0162 9.40326 12.6566 9.30517 13.3275C9.20709 13.9983 9.25671 14.6829 9.45048 15.3319C9.64424 15.9809 9.97733 16.5783 10.4258 17.0809C10.8742 17.5835 11.4268 17.979 12.0438 18.2387ZM8.85148 9.0025C9.49786 8.34622 10.2652 7.82563 11.1097 7.47045C11.9543 7.11528 12.8594 6.93247 13.7736 6.93247C14.6877 6.93247 15.5928 7.11527 16.4374 7.47045C17.2819 7.82563 18.0493 8.34622 18.6956 9.0025C19.342 9.65878 19.8547 10.4379 20.2046 11.2954C20.5544 12.1528 20.7344 13.0719 20.7344 14C20.7344 14.9281 20.5544 15.8472 20.2046 16.7046C19.8547 17.5621 19.342 18.3412 18.6956 18.9975C17.3902 20.3229 15.6197 21.0675 13.7736 21.0675C11.9274 21.0675 10.1569 20.3229 8.85148 18.9975C7.54607 17.6721 6.81269 15.8744 6.81269 14C6.81269 12.1256 7.54607 10.3279 8.85148 9.0025V9.0025ZM22.2782 7.985C22.4384 7.83159 22.5666 7.6471 22.6553 7.44247C22.744 7.23783 22.7914 7.01721 22.7946 6.79366C22.7978 6.57011 22.7568 6.34818 22.674 6.14101C22.5912 5.93384 22.4684 5.74564 22.3127 5.58755C22.157 5.42946 21.9716 5.3047 21.7675 5.22065C21.5635 5.1366 21.3449 5.09497 21.1247 5.09823C20.9046 5.10149 20.6873 5.14957 20.4857 5.23962C20.2842 5.32967 20.1025 5.45987 19.9514 5.6225C19.6575 5.93879 19.4966 6.3589 19.5029 6.79366C19.5091 7.22842 19.682 7.6436 19.9848 7.95105C20.2876 8.25851 20.6965 8.43404 21.1247 8.44037C21.5529 8.44671 21.9667 8.28336 22.2782 7.985V7.985Z" fill="#333333"/>
</svg>
