<svg width="24" height="24" viewBox="0 0 24 24" fill="none" xmlns="http://www.w3.org/2000/svg">
<path d="M13.5667 12L22.7778 2.78888C22.9598 2.57633 23.0549 2.30291 23.0441 2.02327C23.0333 1.74363 22.9174 1.47836 22.7195 1.28048C22.5217 1.0826 22.2564 0.966673 21.9767 0.955872C21.6971 0.945071 21.4237 1.04019 21.2111 1.22222L12 10.4333L2.78891 1.21111C2.57969 1.00188 2.29592 0.884338 2.00002 0.884338C1.70413 0.884338 1.42036 1.00188 1.21114 1.21111C1.00191 1.42033 0.884367 1.70411 0.884367 2C0.884367 2.29589 1.00191 2.57966 1.21114 2.78888L10.4334 12L1.21114 21.2111C1.09482 21.3107 1.00036 21.4333 0.933663 21.5711C0.86697 21.709 0.829492 21.8591 0.823582 22.0122C0.817671 22.1652 0.843455 22.3178 0.899316 22.4604C0.955176 22.6029 1.03991 22.7324 1.14819 22.8407C1.25647 22.949 1.38597 23.0337 1.52855 23.0896C1.67114 23.1455 1.82373 23.1712 1.97675 23.1653C2.12977 23.1594 2.27992 23.1219 2.41777 23.0552C2.55562 22.9886 2.67819 22.8941 2.7778 22.7778L12 13.5667L21.2111 22.7778C21.4237 22.9598 21.6971 23.0549 21.9767 23.0441C22.2564 23.0333 22.5217 22.9174 22.7195 22.7195C22.9174 22.5216 23.0333 22.2564 23.0441 21.9767C23.0549 21.6971 22.9598 21.4237 22.7778 21.2111L13.5667 12Z" fill="black"/>
</svg>
