<svg width="348" height="97" viewBox="0 0 348 97" fill="none" xmlns="http://www.w3.org/2000/svg">
<path d="M2.4375 91.6875C2.6875 90.875 2.90625 89.5 3.09375 87.5625C3.34375 85.6875 3.53125 83.7812 3.65625 81.8438C3.84375 79.5938 4 77.1562 4.125 74.5312C4.3125 72.5938 4.46875 70.1562 4.59375 67.2188C4.71875 64.2812 4.8125 61.1562 4.875 57.8438C4.9375 54.5312 4.96875 51.1875 4.96875 47.8125C4.96875 44.375 4.9375 41.1875 4.875 38.25C4.8125 35.3125 4.6875 32.7812 4.5 30.6562C4.375 28.5313 4.1875 27.0938 3.9375 26.3438C5.125 25.6562 6.1875 25.1563 7.125 24.8438C8.0625 24.5312 8.875 24.3125 9.5625 24.1875C10.3125 24 11 23.9375 11.625 24C12.125 24.0625 12.625 24.1562 13.125 24.2812C13.5625 24.4063 13.9688 24.5938 14.3438 24.8438C14.7188 25.0312 15 25.3125 15.1875 25.6875C15.0625 29.625 14.9062 33.5938 14.7188 37.5938C14.5938 41.5312 14.4375 45.1562 14.25 48.4688C14 52.3438 13.75 56.0625 13.5 59.625C13.3125 63.375 13.125 66.625 12.9375 69.375C12.8125 72.0625 12.6875 74.4375 12.5625 76.5C12.4375 78.5 12.3438 80.3125 12.2812 81.9375C12.2188 83.5 12.1875 85.0625 12.1875 86.625C13.6875 86.3125 15.4688 85.9688 17.5312 85.5938C19.5938 85.1562 21.9375 84.7188 24.5625 84.2812C27.0625 83.9062 29.1562 83.8125 30.8438 84C32.5312 84.125 33.875 84.5 34.875 85.125C35.875 85.6875 36.5625 86.4062 36.9375 87.2812C37.3125 88.2188 37.4688 89.25 37.4062 90.375C37.2812 91.625 37.1875 92.5938 37.125 93.2812C37.0625 93.9688 37.0312 94.5 37.0312 94.875C36.3438 94.4375 35.4062 94.125 34.2188 93.9375C33.0312 93.75 31.8438 93.5938 30.6562 93.4688C29.2812 93.3438 27.8438 93.3125 26.3438 93.375C24.7188 93.4375 22.9375 93.5625 21 93.75C19.375 93.875 17.4688 94.0625 15.2812 94.3125C13.0938 94.5625 10.8125 94.9375 8.4375 95.4375C6.75 94.25 5.34375 93.3125 4.21875 92.625C3.53125 92.25 2.9375 91.9375 2.4375 91.6875ZM38.625 53.8125C38.625 53.4375 39.125 53.0312 40.125 52.5938C41.125 52.1562 42.2188 51.8125 43.4062 51.5625C44.6562 51.25 45.7812 51.0938 46.7812 51.0938C47.8438 51.0312 48.375 51.25 48.375 51.75C48.375 52.6875 48.3125 54.0312 48.1875 55.7812C48.0625 57.4688 47.9062 59.2812 47.7188 61.2188C47.5312 63.0938 47.3438 65 47.1562 66.9375C46.9688 68.8125 46.8438 70.4062 46.7812 71.7188C46.6562 73.0938 46.5312 74.5938 46.4062 76.2188C46.2812 77.5938 46.1875 79.125 46.125 80.8125C46.0625 82.5 46.0625 84.2188 46.125 85.9688C46.125 86.2812 45.8125 86.5938 45.1875 86.9062C44.5625 87.2188 43.875 87.4375 43.125 87.5625C42.375 87.75 41.6562 87.8438 40.9688 87.8438C40.2812 87.8438 39.9062 87.7188 39.8438 87.4688C39.7188 87.2188 39.5938 86.7812 39.4688 86.1562C39.3438 85.5312 39.2188 84.6562 39.0938 83.5312C38.9688 82.3438 38.875 80.8438 38.8125 79.0312C38.75 77.1562 38.7812 74.9062 38.9062 72.2812C39.1562 67.0938 39.1875 63.0938 39 60.2812C38.8125 57.4062 38.6875 55.25 38.625 53.8125ZM45.1875 35.1562C46.4375 35.1562 47.625 35.5312 48.75 36.2812C49.875 37.0312 50.4375 38.0312 50.4375 39.2812C50.4375 40.2188 50.1875 41.125 49.6875 42C49.25 42.875 48.6875 43.6562 48 44.3438C47.3125 45.0312 46.5312 45.5938 45.6562 46.0312C44.7812 46.4062 43.9688 46.5938 43.2188 46.5938C42.2188 46.5938 41.4062 46.4375 40.7812 46.125C40.1562 45.75 39.6562 45.3438 39.2812 44.9062C38.9688 44.4062 38.75 43.875 38.625 43.3125C38.5 42.75 38.4375 42.2188 38.4375 41.7188C38.4375 41.0938 38.5312 40.4062 38.7188 39.6562C38.9062 38.8438 39.25 38.125 39.75 37.5C40.25 36.8125 40.9375 36.25 41.8125 35.8125C42.6875 35.375 43.8125 35.1562 45.1875 35.1562ZM42.8438 43.875C43.2188 43.875 43.625 43.75 44.0625 43.5C44.5625 43.1875 45 42.8438 45.375 42.4688C45.8125 42.0938 46.1562 41.6875 46.4062 41.25C46.7188 40.8125 46.875 40.4375 46.875 40.125C46.875 39.625 46.625 39.375 46.125 39.375C45.8125 39.375 45.4062 39.5 44.9062 39.75C44.4688 40 44.0312 40.3125 43.5938 40.6875C43.1562 41 42.7812 41.375 42.4688 41.8125C42.2188 42.1875 42.0938 42.5625 42.0938 42.9375C42.0938 43.5625 42.3438 43.875 42.8438 43.875ZM67.0312 26.25C66.9062 28.5 66.6875 31.0937 66.375 34.0312C66.0625 36.9688 65.7188 40.125 65.3438 43.5C65.0312 46.875 64.6875 50.4062 64.3125 54.0938C64 57.7812 63.7188 61.5 63.4688 65.25C63.2188 69 63.0938 72.0625 63.0938 74.4375C63.1562 76.75 63.3125 78.6562 63.5625 80.1562C63.8125 81.6562 64.1562 82.8438 64.5938 83.7188C65.0312 84.5938 65.5938 85.4375 66.2812 86.25C65.4688 86.75 64.7188 87.125 64.0312 87.375C63.3438 87.625 62.75 87.8125 62.25 87.9375C61.625 88.125 61.0625 88.2188 60.5625 88.2188C59.625 88.2188 58.8125 87.7812 58.125 86.9062C57.4375 85.9688 56.875 84.7812 56.4375 83.3438C56.0625 81.9062 55.75 80.3125 55.5 78.5625C55.3125 76.75 55.2188 74.9688 55.2188 73.2188C55.2188 71.3438 55.2812 69.1875 55.4062 66.75C55.5312 64.25 55.6562 61.625 55.7812 58.875C55.9688 56.0625 56.1562 53.1562 56.3438 50.1562C56.5312 47.0938 56.6875 44.0625 56.8125 41.0625C56.9375 38.75 57.0625 36.6562 57.1875 34.7812C57.3125 33.1562 57.4062 31.6875 57.4688 30.375C57.5312 29 57.5 28.1875 57.375 27.9375C57.75 27.4375 58.2188 27.0625 58.7812 26.8125C59.3438 26.5625 59.875 26.3438 60.375 26.1562C61 25.9688 61.625 25.8125 62.25 25.6875H64.0312C64.5312 25.6875 65.0625 25.75 65.625 25.875C66.1875 25.9375 66.6562 26.0625 67.0312 26.25ZM72 53.8125C72 53.4375 72.5 53.0312 73.5 52.5938C74.5 52.1562 75.5938 51.8125 76.7812 51.5625C78.0312 51.25 79.1562 51.0938 80.1562 51.0938C81.2188 51.0312 81.75 51.25 81.75 51.75C81.75 52.6875 81.6875 54.0312 81.5625 55.7812C81.4375 57.4688 81.2812 59.2812 81.0938 61.2188C80.9062 63.0938 80.7188 65 80.5312 66.9375C80.3438 68.8125 80.2188 70.4062 80.1562 71.7188C80.0312 73.0938 79.9062 74.5938 79.7812 76.2188C79.6562 77.5938 79.5625 79.125 79.5 80.8125C79.4375 82.5 79.4375 84.2188 79.5 85.9688C79.5 86.2812 79.1875 86.5938 78.5625 86.9062C77.9375 87.2188 77.25 87.4375 76.5 87.5625C75.75 87.75 75.0312 87.8438 74.3438 87.8438C73.6562 87.8438 73.2812 87.7188 73.2188 87.4688C73.0938 87.2188 72.9688 86.7812 72.8438 86.1562C72.7188 85.5312 72.5938 84.6562 72.4688 83.5312C72.3438 82.3438 72.25 80.8438 72.1875 79.0312C72.125 77.1562 72.1562 74.9062 72.2812 72.2812C72.5312 67.0938 72.5625 63.0938 72.375 60.2812C72.1875 57.4062 72.0625 55.25 72 53.8125ZM78.5625 35.1562C79.8125 35.1562 81 35.5312 82.125 36.2812C83.25 37.0312 83.8125 38.0312 83.8125 39.2812C83.8125 40.2188 83.5625 41.125 83.0625 42C82.625 42.875 82.0625 43.6562 81.375 44.3438C80.6875 45.0312 79.9062 45.5938 79.0312 46.0312C78.1562 46.4062 77.3438 46.5938 76.5938 46.5938C75.5938 46.5938 74.7812 46.4375 74.1562 46.125C73.5312 45.75 73.0312 45.3438 72.6562 44.9062C72.3438 44.4062 72.125 43.875 72 43.3125C71.875 42.75 71.8125 42.2188 71.8125 41.7188C71.8125 41.0938 71.9062 40.4062 72.0938 39.6562C72.2812 38.8438 72.625 38.125 73.125 37.5C73.625 36.8125 74.3125 36.25 75.1875 35.8125C76.0625 35.375 77.1875 35.1562 78.5625 35.1562ZM76.2188 43.875C76.5938 43.875 77 43.75 77.4375 43.5C77.9375 43.1875 78.375 42.8438 78.75 42.4688C79.1875 42.0938 79.5312 41.6875 79.7812 41.25C80.0938 40.8125 80.25 40.4375 80.25 40.125C80.25 39.625 80 39.375 79.5 39.375C79.1875 39.375 78.7812 39.5 78.2812 39.75C77.8438 40 77.4062 40.3125 76.9688 40.6875C76.5312 41 76.1562 41.375 75.8438 41.8125C75.5938 42.1875 75.4688 42.5625 75.4688 42.9375C75.4688 43.5625 75.7188 43.875 76.2188 43.875ZM105 35.5312C104.688 35.1562 104.438 34.7188 104.25 34.2188C104.062 33.7188 103.906 33.2188 103.781 32.7188C103.656 32.1562 103.562 31.5938 103.5 31.0312V29.4375C103.5 29 103.531 28.5938 103.594 28.2188C103.656 27.7813 103.812 27.4375 104.062 27.1875C106 26.6875 108.094 26.3125 110.344 26.0625C112.594 25.75 114.719 25.4687 116.719 25.2188C119.031 24.9688 121.312 24.75 123.562 24.5625C124.188 24.125 124.75 23.8125 125.25 23.625C125.75 23.4375 126.156 23.4375 126.469 23.625C126.594 23.625 126.719 23.875 126.844 24.375H127.219C129.469 24.3125 131.625 24.25 133.688 24.1875C135.438 24.125 137.156 24.125 138.844 24.1875C140.594 24.1875 141.938 24.2188 142.875 24.2812C143.375 24.3437 143.75 24.7187 144 25.4062C144.25 26.0938 144.312 26.9687 144.188 28.0312C144.125 29.0938 143.844 30.25 143.344 31.5C142.844 32.75 142.031 33.9375 140.906 35.0625C139.469 34.6875 137.969 34.4375 136.406 34.3125C134.844 34.125 133.438 33.9688 132.188 33.8438C130.625 33.7188 129.156 33.6562 127.781 33.6562H127.312C127.375 36.1562 127.406 38.9375 127.406 42C127.406 45 127.375 48.0625 127.312 51.1875C127.312 54.25 127.281 57.2812 127.219 60.2812C127.156 63.2188 127.094 65.8438 127.031 68.1562C127.031 71.8438 127.031 75.0312 127.031 77.7188C127.031 80.3438 127.125 82.5938 127.312 84.4688C127.5 86.2812 127.781 87.75 128.156 88.875C128.531 90 129.062 90.9062 129.75 91.5938C129.688 91.6562 129.5 91.8438 129.188 92.1562C128.938 92.5312 128.562 92.9062 128.062 93.2812C127.625 93.6562 127.062 94 126.375 94.3125C125.75 94.625 125.031 94.75 124.219 94.6875C122.156 94.625 120.625 93.9375 119.625 92.625C118.625 91.3125 117.938 89.4688 117.562 87.0938C117.188 84.7188 117.031 81.8438 117.094 78.4688C117.219 75.0938 117.406 71.25 117.656 66.9375C117.844 64 118 60.9688 118.125 57.8438C118.312 54.7188 118.469 51.7188 118.594 48.8438C118.781 45.9062 118.938 43.1875 119.062 40.6875C119.188 38.125 119.312 35.9062 119.438 34.0312C117.875 34.0938 116.281 34.2188 114.656 34.4062C113.219 34.5312 111.656 34.6875 109.969 34.875C108.281 35.0625 106.625 35.2812 105 35.5312ZM165.844 82.2188C165.969 82.6562 166.156 83.0625 166.406 83.4375C166.594 83.75 166.844 84.0625 167.156 84.375C167.531 84.625 167.969 84.7812 168.469 84.8438C168.031 85.7188 167.594 86.3125 167.156 86.625C166.906 86.8125 166.688 86.9375 166.5 87C165.938 87.1875 165.094 87.2812 163.969 87.2812C162.844 87.2812 161.75 86.9375 160.688 86.25C160.312 85.9375 159.969 85.4688 159.656 84.8438C159.344 84.3438 159.062 83.6562 158.812 82.7812C158.625 81.8438 158.469 80.6562 158.344 79.2188C157.469 81.0938 156.469 82.5938 155.344 83.7188C154.281 84.7812 153.219 85.5625 152.156 86.0625C150.969 86.75 149.75 87.1562 148.5 87.2812C146.938 87.4062 145.438 87.1562 144 86.5312C142.625 85.8438 141.438 84.8438 140.438 83.5312C139.5 82.1562 138.781 80.5 138.281 78.5625C137.781 76.625 137.625 74.4375 137.812 72C138 69.4375 138.5 67.1562 139.312 65.1562C140.125 63.1562 141.094 61.375 142.219 59.8125C143.344 58.25 144.531 56.9375 145.781 55.875C147.031 54.75 148.219 53.8438 149.344 53.1562C150.531 52.4062 151.531 51.875 152.344 51.5625C153.219 51.1875 153.781 50.9688 154.031 50.9062C154.719 50.7188 155.312 50.6562 155.812 50.7188C156.312 50.7812 156.75 51.0625 157.125 51.5625C157.25 51.75 157.406 51.9688 157.594 52.2188C157.719 52.4688 157.875 52.8125 158.062 53.25C158.25 53.625 158.406 54.0625 158.531 54.5625C157.031 55.25 155.625 56.0312 154.312 56.9062C153 57.7188 151.781 58.7188 150.656 59.9062C149.594 61.0938 148.656 62.5312 147.844 64.2188C147.031 65.9062 146.406 67.9688 145.969 70.4062C145.344 73.4688 145.5 75.9375 146.438 77.8125C147.438 79.6875 148.781 80.4688 150.469 80.1562C151.469 79.8438 152.438 79.25 153.375 78.375C154.188 77.625 155.031 76.5 155.906 75C156.844 73.5 157.719 71.4375 158.531 68.8125C158.844 65.0625 159.094 62.125 159.281 60C159.531 57.8125 159.75 56.1562 159.938 55.0312C160.188 53.7188 160.375 52.8438 160.5 52.4062C160.688 52.0938 161.062 51.8125 161.625 51.5625C162.188 51.25 162.812 51 163.5 50.8125C164.188 50.625 164.812 50.5312 165.375 50.5312C165.938 50.4688 166.312 50.4688 166.5 50.5312C166.625 50.5938 166.688 51.375 166.688 52.875C166.688 54.3125 166.625 56.1562 166.5 58.4062C166.438 60.5938 166.344 63 166.219 65.625C166.094 68.1875 165.969 70.625 165.844 72.9375C165.781 75.25 165.719 77.2812 165.656 79.0312C165.656 80.7188 165.719 81.7812 165.844 82.2188ZM194.625 57.75C194.125 57.75 193.562 58.0312 192.938 58.5938C192.375 59.0938 191.812 59.8125 191.25 60.75C190.688 61.625 190.125 62.625 189.562 63.75C189 64.8125 188.5 65.9062 188.062 67.0312C187 69.6562 185.969 72.3438 184.969 75.0938C183.969 77.8438 183.375 80.2188 183.188 82.2188C183.125 82.4062 183.094 82.5938 183.094 82.7812C183.094 82.9062 183.094 83.0312 183.094 83.1562C183.031 83.2812 183 83.4688 183 83.7188C182.875 84.5938 182.688 85.3125 182.438 85.875C182.25 86.375 181.812 86.7188 181.125 86.9062C180.375 87.0312 179.625 87.125 178.875 87.1875C178.125 87.25 177.406 87.1875 176.719 87C176.281 86.875 175.938 86.6562 175.688 86.3438C175.5 85.9688 175.344 85.5625 175.219 85.125C175.156 84.625 175.094 84.1562 175.031 83.7188C175.031 83.2812 175.031 82.9062 175.031 82.5938C175.031 82.2188 175.062 81.0625 175.125 79.125C175.188 77.125 175.25 74.875 175.312 72.375C175.375 69.875 175.406 67.4375 175.406 65.0625C175.406 62.625 175.375 60.7812 175.312 59.5312C175.188 58.6562 175.062 57.8438 174.938 57.0938C174.812 56.4062 174.656 55.7188 174.469 55.0312C174.344 54.3438 174.125 53.75 173.812 53.25C174.5 52.875 175.188 52.5625 175.875 52.3125C176.562 52.0625 177.188 51.875 177.75 51.75C178.438 51.5625 179.062 51.4375 179.625 51.375C181.125 51.25 182.281 51.25 183.094 51.375C183.969 51.5 184.406 52.1562 184.406 53.3438C184.406 54.4062 184.312 56.0625 184.125 58.3125C184 60.5 183.844 63.5625 183.656 67.5C184.344 65.9375 185.156 64.1875 186.094 62.25C187.031 60.25 188.031 58.4062 189.094 56.7188C190.156 54.9688 191.25 53.5312 192.375 52.4062C193.5 51.2188 194.562 50.625 195.562 50.625C196.25 50.625 197.031 50.7812 197.906 51.0938C198.844 51.3438 199.719 51.7188 200.531 52.2188C201.344 52.6562 202.062 53.1562 202.688 53.7188C203.375 54.2812 203.844 54.8438 204.094 55.4062C204.344 56.0312 204.5 57 204.562 58.3125C204.625 59.625 204.625 61.0938 204.562 62.7188C205.062 61.5312 205.625 60.375 206.25 59.25C206.875 58.125 207.5 57.0938 208.125 56.1562C208.812 55.1562 209.5 54.3125 210.188 53.625C210.875 52.9375 211.5 52.4688 212.062 52.2188C212.812 51.9062 213.719 51.8438 214.781 52.0312C215.844 52.2188 216.875 52.5625 217.875 53.0625C218.938 53.5 219.844 54.0312 220.594 54.6562C221.406 55.2812 221.906 55.875 222.094 56.4375C222.281 57.0625 222.438 58.0312 222.562 59.3438C222.688 60.6562 222.781 62.0938 222.844 63.6562C222.906 65.2188 222.938 66.8438 222.938 68.5312C222.938 70.1562 222.906 71.5938 222.844 72.8438C222.719 76.4688 222.75 79.3438 222.938 81.4688C223.125 83.5312 223.875 85.0625 225.188 86.0625C224.312 86.625 223.5 87.0312 222.75 87.2812C222 87.5938 221.344 87.8125 220.781 87.9375C220.094 88.125 219.5 88.2188 219 88.2188C218.312 88.2188 217.75 88.0312 217.312 87.6562C216.875 87.3438 216.531 86.9062 216.281 86.3438C216.031 85.7812 215.875 85.1562 215.812 84.4688C215.75 83.7812 215.719 83.0938 215.719 82.4062C215.719 81.7812 215.75 80.75 215.812 79.3125C215.938 77.8125 216.031 76.125 216.094 74.25C216.156 72.375 216.156 70.4688 216.094 68.5312C216.031 66.5312 215.875 64.7188 215.625 63.0938C215.438 61.4062 215.094 60.0312 214.594 58.9688C214.094 57.9062 213.406 57.375 212.531 57.375C211.781 57.375 211.062 57.8438 210.375 58.7812C209.688 59.6562 209.031 60.8438 208.406 62.3438C207.781 63.7812 207.219 65.4062 206.719 67.2188C206.281 68.9688 205.875 70.7188 205.5 72.4688C205.125 74.2188 204.844 75.8438 204.656 77.3438C204.469 78.7812 204.375 79.9375 204.375 80.8125L204.281 79.9688C204.281 81.1562 204.281 82.25 204.281 83.25C204.344 84.25 204.406 85.25 204.469 86.25C204.531 86.625 204.188 86.9375 203.438 87.1875C202.688 87.5 201.844 87.625 200.906 87.5625C200.031 87.5625 199.219 87.375 198.469 87C197.719 86.625 197.344 86 197.344 85.125C197.344 84.5 197.344 83.5625 197.344 82.3125C197.344 81.0625 197.312 79.6562 197.25 78.0938C197.25 76.5312 197.219 74.9062 197.156 73.2188C197.156 71.4688 197.125 69.8125 197.062 68.25C197.062 67.0625 197.031 65.8438 196.969 64.5938C196.969 63.3438 196.906 62.2188 196.781 61.2188C196.656 60.1562 196.406 59.3125 196.031 58.6875C195.719 58.0625 195.25 57.75 194.625 57.75ZM257.156 82.2188C257.281 82.6562 257.469 83.0625 257.719 83.4375C257.906 83.75 258.156 84.0625 258.469 84.375C258.844 84.625 259.281 84.7812 259.781 84.8438C259.344 85.7188 258.906 86.3125 258.469 86.625C258.219 86.8125 258 86.9375 257.812 87C257.25 87.1875 256.406 87.2812 255.281 87.2812C254.156 87.2812 253.062 86.9375 252 86.25C251.625 85.9375 251.281 85.4688 250.969 84.8438C250.656 84.3438 250.375 83.6562 250.125 82.7812C249.938 81.8438 249.781 80.6562 249.656 79.2188C248.781 81.0938 247.781 82.5938 246.656 83.7188C245.594 84.7812 244.531 85.5625 243.469 86.0625C242.281 86.75 241.062 87.1562 239.812 87.2812C238.25 87.4062 236.75 87.1562 235.312 86.5312C233.938 85.8438 232.75 84.8438 231.75 83.5312C230.812 82.1562 230.094 80.5 229.594 78.5625C229.094 76.625 228.938 74.4375 229.125 72C229.312 69.4375 229.812 67.1562 230.625 65.1562C231.438 63.1562 232.406 61.375 233.531 59.8125C234.656 58.25 235.844 56.9375 237.094 55.875C238.344 54.75 239.531 53.8438 240.656 53.1562C241.844 52.4062 242.844 51.875 243.656 51.5625C244.531 51.1875 245.094 50.9688 245.344 50.9062C246.031 50.7188 246.625 50.6562 247.125 50.7188C247.625 50.7812 248.062 51.0625 248.438 51.5625C248.562 51.75 248.719 51.9688 248.906 52.2188C249.031 52.4688 249.188 52.8125 249.375 53.25C249.562 53.625 249.719 54.0625 249.844 54.5625C248.344 55.25 246.938 56.0312 245.625 56.9062C244.312 57.7188 243.094 58.7188 241.969 59.9062C240.906 61.0938 239.969 62.5312 239.156 64.2188C238.344 65.9062 237.719 67.9688 237.281 70.4062C236.656 73.4688 236.812 75.9375 237.75 77.8125C238.75 79.6875 240.094 80.4688 241.781 80.1562C242.781 79.8438 243.75 79.25 244.688 78.375C245.5 77.625 246.344 76.5 247.219 75C248.156 73.5 249.031 71.4375 249.844 68.8125C250.156 65.0625 250.406 62.125 250.594 60C250.844 57.8125 251.062 56.1562 251.25 55.0312C251.5 53.7188 251.688 52.8438 251.812 52.4062C252 52.0938 252.375 51.8125 252.938 51.5625C253.5 51.25 254.125 51 254.812 50.8125C255.5 50.625 256.125 50.5312 256.688 50.5312C257.25 50.4688 257.625 50.4688 257.812 50.5312C257.938 50.5938 258 51.375 258 52.875C258 54.3125 257.938 56.1562 257.812 58.4062C257.75 60.5938 257.656 63 257.531 65.625C257.406 68.1875 257.281 70.625 257.156 72.9375C257.094 75.25 257.031 77.2812 256.969 79.0312C256.969 80.7188 257.031 81.7812 257.156 82.2188ZM290.625 58.2188C290.625 59.0938 290.375 60 289.875 60.9375C289.438 61.8125 288.875 62.6562 288.188 63.4688C287.5 64.2812 286.719 65 285.844 65.625C285.031 66.1875 284.25 66.5312 283.5 66.6562C284 64.7188 284.156 63.2188 283.969 62.1562C283.781 61.0938 283.469 60.3125 283.031 59.8125C282.531 59.25 281.906 58.9375 281.156 58.875C280.031 58.875 278.938 59.5312 277.875 60.8438C276.875 62.0938 276 63.6562 275.25 65.5312C274.5 67.3438 273.906 69.3125 273.469 71.4375C273.031 73.5 272.812 75.375 272.812 77.0625C272.75 78.25 272.781 79.4062 272.906 80.5312C272.969 81.4688 273.062 82.4375 273.188 83.4375C273.375 84.4375 273.625 85.2188 273.938 85.7812C273.562 86.0938 272.938 86.4688 272.062 86.9062C271.25 87.3438 270.375 87.625 269.438 87.75C268.562 87.875 267.75 87.7188 267 87.2812C266.312 86.8438 265.938 85.9062 265.875 84.4688C265.75 83.0938 265.656 81.5625 265.594 79.875C265.594 78.125 265.594 76.4062 265.594 74.7188C265.656 72.9688 265.719 71.25 265.781 69.5625C265.844 67.875 265.938 66.3125 266.062 64.875C266.188 62.125 266.25 60 266.25 58.5C266.25 57 266.219 55.5625 266.156 54.1875C266.156 53.9375 266.562 53.5938 267.375 53.1562C268.25 52.6562 269.188 52.2188 270.188 51.8438C271.25 51.4688 272.219 51.25 273.094 51.1875C273.969 51.125 274.406 51.3125 274.406 51.75C274.406 52.4375 274.312 53.8125 274.125 55.875C274 57.875 273.812 59.9688 273.562 62.1562C274 60.9688 274.562 59.6875 275.25 58.3125C276 56.9375 276.844 55.6562 277.781 54.4688C278.719 53.2812 279.781 52.3125 280.969 51.5625C282.156 50.75 283.469 50.3438 284.906 50.3438C286.031 50.3438 286.938 50.6875 287.625 51.375C288.375 52.0625 288.969 52.8438 289.406 53.7188C289.844 54.5938 290.156 55.4688 290.344 56.3438C290.531 57.2188 290.625 57.8438 290.625 58.2188ZM294.188 53.8125C294.188 53.4375 294.688 53.0312 295.688 52.5938C296.688 52.1562 297.781 51.8125 298.969 51.5625C300.219 51.25 301.344 51.0938 302.344 51.0938C303.406 51.0312 303.938 51.25 303.938 51.75C303.938 52.6875 303.875 54.0312 303.75 55.7812C303.625 57.4688 303.469 59.2812 303.281 61.2188C303.094 63.0938 302.906 65 302.719 66.9375C302.531 68.8125 302.406 70.4062 302.344 71.7188C302.219 73.0938 302.094 74.5938 301.969 76.2188C301.844 77.5938 301.75 79.125 301.688 80.8125C301.625 82.5 301.625 84.2188 301.688 85.9688C301.688 86.2812 301.375 86.5938 300.75 86.9062C300.125 87.2188 299.438 87.4375 298.688 87.5625C297.938 87.75 297.219 87.8438 296.531 87.8438C295.844 87.8438 295.469 87.7188 295.406 87.4688C295.281 87.2188 295.156 86.7812 295.031 86.1562C294.906 85.5312 294.781 84.6562 294.656 83.5312C294.531 82.3438 294.438 80.8438 294.375 79.0312C294.312 77.1562 294.344 74.9062 294.469 72.2812C294.719 67.0938 294.75 63.0938 294.562 60.2812C294.375 57.4062 294.25 55.25 294.188 53.8125ZM300.75 35.1562C302 35.1562 303.188 35.5312 304.312 36.2812C305.438 37.0312 306 38.0312 306 39.2812C306 40.2188 305.75 41.125 305.25 42C304.812 42.875 304.25 43.6562 303.562 44.3438C302.875 45.0312 302.094 45.5938 301.219 46.0312C300.344 46.4062 299.531 46.5938 298.781 46.5938C297.781 46.5938 296.969 46.4375 296.344 46.125C295.719 45.75 295.219 45.3438 294.844 44.9062C294.531 44.4062 294.312 43.875 294.188 43.3125C294.062 42.75 294 42.2188 294 41.7188C294 41.0938 294.094 40.4062 294.281 39.6562C294.469 38.8438 294.812 38.125 295.312 37.5C295.812 36.8125 296.5 36.25 297.375 35.8125C298.25 35.375 299.375 35.1562 300.75 35.1562ZM298.406 43.875C298.781 43.875 299.188 43.75 299.625 43.5C300.125 43.1875 300.562 42.8438 300.938 42.4688C301.375 42.0938 301.719 41.6875 301.969 41.25C302.281 40.8125 302.438 40.4375 302.438 40.125C302.438 39.625 302.188 39.375 301.688 39.375C301.375 39.375 300.969 39.5 300.469 39.75C300.031 40 299.594 40.3125 299.156 40.6875C298.719 41 298.344 41.375 298.031 41.8125C297.781 42.1875 297.656 42.5625 297.656 42.9375C297.656 43.5625 297.906 43.875 298.406 43.875ZM345.656 45.2812C344.969 45.1562 344.031 45.0312 342.844 44.9062C341.719 44.7812 340.562 44.6875 339.375 44.625C338 44.5625 336.531 44.5312 334.969 44.5312C333.406 44.4062 331.438 44.4062 329.062 44.5312C326.75 44.5938 324.312 44.625 321.75 44.625C321.688 46.25 321.562 47.9062 321.375 49.5938C321.25 51.2812 321.125 52.9375 321 54.5625C320.688 57.5625 320.406 60.625 320.156 63.75C319.969 66.875 319.875 69.8438 319.875 72.6562C319.875 75.4688 320.031 78.0312 320.344 80.3438C320.719 82.5938 321.375 84.375 322.312 85.6875C321.562 86.25 320.75 86.6875 319.875 87C319 87.25 318.219 87.4375 317.531 87.5625C316.719 87.75 315.906 87.8438 315.094 87.8438C314.344 87.8438 313.719 87.5938 313.219 87.0938C312.719 86.5938 312.438 85.7188 312.375 84.4688C312.25 82.3438 312.219 80.2188 312.281 78.0938C312.406 75.9062 312.531 73.625 312.656 71.25C312.844 68.875 313.031 66.3438 313.219 63.6562C313.406 60.9062 313.594 57.9062 313.781 54.6562C313.969 51.2812 314.062 48 314.062 44.8125C311.688 44.875 309.688 44.9062 308.062 44.9062C306.438 44.9062 305.531 44.875 305.344 44.8125C305.156 44.6875 304.938 44.4062 304.688 43.9688C304.438 43.5938 304.125 43.0312 303.75 42.2812C303.312 41.5312 302.781 40.4688 302.156 39.0938C303.344 39.0938 304.656 39.0938 306.094 39.0938C307.469 39.0938 308.75 39.0625 309.938 39C311.312 38.9375 312.688 38.875 314.062 38.8125C314 37.8125 313.969 36.75 313.969 35.625C313.906 34.75 313.875 33.7812 313.875 32.7188C313.875 31.5938 313.844 30.5625 313.781 29.625C313.781 29.25 314.219 28.8125 315.094 28.3125C316.031 27.75 317.031 27.25 318.094 26.8125C319.156 26.375 320.125 26.0938 321 25.9688C321.938 25.8437 322.406 26.0625 322.406 26.625C322.406 27.1875 322.375 28.5625 322.312 30.75C322.312 32.875 322.25 35.4688 322.125 38.5312C322.75 38.5312 323.219 38.5 323.531 38.4375C326.844 38.3125 329.5 38.1875 331.5 38.0625C333.562 37.875 335.25 37.8438 336.562 37.9688C337.875 38.0938 339.031 38.4062 340.031 38.9062C341.031 39.4062 342.156 40.2188 343.406 41.3438C343.844 41.7188 344.219 42.125 344.531 42.5625C344.844 42.9375 345.094 43.375 345.281 43.875C345.531 44.3125 345.656 44.7812 345.656 45.2812Z" fill="black"/>
<path d="M204.344 23.0938C204.344 23.4375 204.219 23.9688 203.969 24.6875C203.75 25.375 203.375 26.0781 202.844 26.7969C202.312 27.4844 201.625 28.0938 200.781 28.625C199.969 29.1562 198.969 29.4219 197.781 29.4219C196.094 29.4219 194.672 28.9688 193.516 28.0625C192.391 27.125 191.594 25.7969 191.125 24.0781C190.75 22.6406 190.641 21.1094 190.797 19.4844C190.984 17.8281 191.438 16.2969 192.156 14.8906C192.875 13.4844 193.875 12.2969 195.156 11.3281C196.438 10.3281 198 9.78125 199.844 9.6875C200.781 9.65625 201.562 9.82812 202.188 10.2031C202.812 10.5781 203.297 11.0625 203.641 11.6562C203.984 12.25 204.188 12.9062 204.25 13.625C204.312 14.3125 204.234 14.9688 204.016 15.5938C203.828 16.2188 203.516 16.75 203.078 17.1875C202.672 17.5938 202.141 17.8125 201.484 17.8438C200.828 17.9062 200.281 17.8281 199.844 17.6094C199.438 17.3594 199.109 17.0625 198.859 16.7188C198.641 16.375 198.484 16.0156 198.391 15.6406C198.328 15.2656 198.328 14.9375 198.391 14.6562C198.484 14.25 198.641 13.875 198.859 13.5312C199.047 13.2188 199.312 12.9062 199.656 12.5938C200.031 12.2812 200.516 12.0312 201.109 11.8438C201.016 11.7812 200.922 11.75 200.828 11.75C200.734 11.75 200.641 11.7344 200.547 11.7031C200.422 11.7031 200.328 11.6875 200.266 11.6562C199.766 11.6562 199.188 11.8281 198.531 12.1719C197.906 12.5156 197.297 13.0625 196.703 13.8125C196.141 14.5625 195.656 15.5312 195.25 16.7188C194.875 17.875 194.688 19.2812 194.688 20.9375C194.688 21.6562 194.766 22.375 194.922 23.0938C195.078 23.7812 195.312 24.4062 195.625 24.9688C195.969 25.5 196.375 25.9375 196.844 26.2812C197.344 26.5938 197.922 26.75 198.578 26.75C199.328 26.75 199.984 26.5938 200.547 26.2812C201.141 25.9375 201.641 25.5469 202.047 25.1094C202.453 24.6719 202.766 24.2344 202.984 23.7969C203.234 23.3594 203.406 23.0312 203.5 22.8125C203.594 22.625 203.75 22.5312 203.969 22.5312C204.219 22.5312 204.344 22.7188 204.344 23.0938ZM220.609 26.6094C220.672 26.8281 220.766 27.0312 220.891 27.2188C220.984 27.375 221.109 27.5312 221.266 27.6875C221.453 27.8125 221.672 27.8906 221.922 27.9219C221.703 28.3594 221.484 28.6562 221.266 28.8125C221.141 28.9062 221.031 28.9688 220.938 29C220.656 29.0938 220.234 29.1406 219.672 29.1406C219.109 29.1406 218.562 28.9688 218.031 28.625C217.844 28.4688 217.672 28.2344 217.516 27.9219C217.359 27.6719 217.219 27.3281 217.094 26.8906C217 26.4219 216.922 25.8281 216.859 25.1094C216.422 26.0469 215.922 26.7969 215.359 27.3594C214.828 27.8906 214.297 28.2812 213.766 28.5312C213.172 28.875 212.562 29.0781 211.938 29.1406C211.156 29.2031 210.406 29.0781 209.688 28.7656C209 28.4219 208.406 27.9219 207.906 27.2656C207.438 26.5781 207.078 25.75 206.828 24.7812C206.578 23.8125 206.5 22.7188 206.594 21.5C206.688 20.2188 206.938 19.0781 207.344 18.0781C207.75 17.0781 208.234 16.1875 208.797 15.4062C209.359 14.625 209.953 13.9688 210.578 13.4375C211.203 12.875 211.797 12.4219 212.359 12.0781C212.953 11.7031 213.453 11.4375 213.859 11.2812C214.297 11.0938 214.578 10.9844 214.703 10.9531C215.047 10.8594 215.344 10.8281 215.594 10.8594C215.844 10.8906 216.062 11.0312 216.25 11.2812C216.312 11.375 216.391 11.4844 216.484 11.6094C216.547 11.7344 216.625 11.9062 216.719 12.125C216.812 12.3125 216.891 12.5312 216.953 12.7812C216.203 13.125 215.5 13.5156 214.844 13.9531C214.188 14.3594 213.578 14.8594 213.016 15.4531C212.484 16.0469 212.016 16.7656 211.609 17.6094C211.203 18.4531 210.891 19.4844 210.672 20.7031C210.359 22.2344 210.438 23.4688 210.906 24.4062C211.406 25.3438 212.078 25.7344 212.922 25.5781C213.422 25.4219 213.906 25.125 214.375 24.6875C214.781 24.3125 215.203 23.75 215.641 23C216.109 22.25 216.547 21.2188 216.953 19.9062C217.109 18.0312 217.234 16.5625 217.328 15.5C217.453 14.4062 217.562 13.5781 217.656 13.0156C217.781 12.3594 217.875 11.9219 217.938 11.7031C218.031 11.5469 218.219 11.4062 218.5 11.2812C218.781 11.125 219.094 11 219.438 10.9062C219.781 10.8125 220.094 10.7656 220.375 10.7656C220.656 10.7344 220.844 10.7344 220.938 10.7656C221 10.7969 221.031 11.1875 221.031 11.9375C221.031 12.6562 221 13.5781 220.938 14.7031C220.906 15.7969 220.859 17 220.797 18.3125C220.734 19.5938 220.672 20.8125 220.609 21.9688C220.578 23.125 220.547 24.1406 220.516 25.0156C220.516 25.8594 220.547 26.3906 220.609 26.6094ZM232.047 20.0938C232.734 20.3438 233.391 20.5781 234.016 20.7969C234.641 21.0156 235.188 21.2812 235.656 21.5938C236.125 21.9062 236.5 22.2812 236.781 22.7188C237.062 23.125 237.203 23.6406 237.203 24.2656C237.203 25.0156 237.031 25.7188 236.688 26.375C236.375 27.0312 235.906 27.6094 235.281 28.1094C234.656 28.6094 233.891 29 232.984 29.2812C232.109 29.5938 231.125 29.75 230.031 29.75C228.812 29.75 227.828 29.625 227.078 29.375C226.328 29.1562 225.75 28.8906 225.344 28.5781C224.938 28.2656 224.672 27.9531 224.547 27.6406C224.422 27.3281 224.359 27.0781 224.359 26.8906C224.359 26.5156 224.438 26.1094 224.594 25.6719C224.75 25.2031 225.047 24.7031 225.484 24.1719C225.672 23.9531 225.875 23.75 226.094 23.5625C226.531 23.1875 226.969 22.9531 227.406 22.8594C227.344 23.5781 227.422 24.1719 227.641 24.6406C227.891 25.0781 228.203 25.4219 228.578 25.6719C228.984 25.9219 229.422 26.0938 229.891 26.1875C230.391 26.2812 230.859 26.3281 231.297 26.3281C231.734 26.3281 232.172 26.2656 232.609 26.1406C233.078 26.0156 233.5 25.8594 233.875 25.6719C234.25 25.4531 234.547 25.2188 234.766 24.9688C235.016 24.6875 235.141 24.3906 235.141 24.0781C235.141 23.7344 235 23.4531 234.719 23.2344C234.438 23.0156 234.078 22.8438 233.641 22.7188C233.234 22.5625 232.781 22.4531 232.281 22.3906C231.812 22.2969 231.359 22.2031 230.922 22.1094C230.484 22.0156 229.891 21.8906 229.141 21.7344C228.422 21.5469 227.703 21.2656 226.984 20.8906C226.297 20.5156 225.688 20.0156 225.156 19.3906C224.656 18.7656 224.406 17.9375 224.406 16.9062C224.406 15.7188 224.703 14.6875 225.297 13.8125C225.922 12.9062 226.672 12.1562 227.547 11.5625C228.453 10.9375 229.406 10.4688 230.406 10.1562C231.406 9.84375 232.297 9.6875 233.078 9.6875C233.484 9.6875 233.922 9.75 234.391 9.875C234.859 9.96875 235.297 10.1562 235.703 10.4375C236.109 10.6875 236.438 11.0312 236.688 11.4688C236.969 11.9062 237.109 12.4688 237.109 13.1562C237.109 13.8438 237.047 14.4062 236.922 14.8438C236.828 15.25 236.672 15.5781 236.453 15.8281C236.266 16.0469 236.031 16.1875 235.75 16.25C235.469 16.3125 235.141 16.3438 234.766 16.3438C234.516 16.3438 234.281 16.3125 234.062 16.25C233.875 16.1875 233.672 16.125 233.453 16.0625C233.234 16 233.031 15.8906 232.844 15.7344C233.156 15.3594 233.391 15 233.547 14.6562C233.734 14.3125 233.828 13.8906 233.828 13.3906C233.828 12.9531 233.703 12.5625 233.453 12.2188C233.234 11.875 232.859 11.7031 232.328 11.7031C231.766 11.7031 231.219 11.8125 230.688 12.0312C230.188 12.25 229.734 12.5469 229.328 12.9219C228.953 13.2969 228.641 13.7344 228.391 14.2344C228.172 14.7031 228.062 15.2188 228.062 15.7812C228.062 16.625 228.375 17.4219 229 18.1719C229.656 18.9219 230.672 19.5625 232.047 20.0938ZM253.469 26.6094C253.531 26.8281 253.625 27.0312 253.75 27.2188C253.844 27.375 253.969 27.5312 254.125 27.6875C254.312 27.8125 254.531 27.8906 254.781 27.9219C254.562 28.3594 254.344 28.6562 254.125 28.8125C254 28.9062 253.891 28.9688 253.797 29C253.516 29.0938 253.094 29.1406 252.531 29.1406C251.969 29.1406 251.422 28.9688 250.891 28.625C250.703 28.4688 250.531 28.2344 250.375 27.9219C250.219 27.6719 250.078 27.3281 249.953 26.8906C249.859 26.4219 249.781 25.8281 249.719 25.1094C249.281 26.0469 248.781 26.7969 248.219 27.3594C247.688 27.8906 247.156 28.2812 246.625 28.5312C246.031 28.875 245.422 29.0781 244.797 29.1406C244.016 29.2031 243.266 29.0781 242.547 28.7656C241.859 28.4219 241.266 27.9219 240.766 27.2656C240.297 26.5781 239.938 25.75 239.688 24.7812C239.438 23.8125 239.359 22.7188 239.453 21.5C239.547 20.2188 239.797 19.0781 240.203 18.0781C240.609 17.0781 241.094 16.1875 241.656 15.4062C242.219 14.625 242.812 13.9688 243.438 13.4375C244.062 12.875 244.656 12.4219 245.219 12.0781C245.812 11.7031 246.312 11.4375 246.719 11.2812C247.156 11.0938 247.438 10.9844 247.562 10.9531C247.906 10.8594 248.203 10.8281 248.453 10.8594C248.703 10.8906 248.922 11.0312 249.109 11.2812C249.172 11.375 249.25 11.4844 249.344 11.6094C249.406 11.7344 249.484 11.9062 249.578 12.125C249.672 12.3125 249.75 12.5312 249.812 12.7812C249.062 13.125 248.359 13.5156 247.703 13.9531C247.047 14.3594 246.438 14.8594 245.875 15.4531C245.344 16.0469 244.875 16.7656 244.469 17.6094C244.062 18.4531 243.75 19.4844 243.531 20.7031C243.219 22.2344 243.297 23.4688 243.766 24.4062C244.266 25.3438 244.938 25.7344 245.781 25.5781C246.281 25.4219 246.766 25.125 247.234 24.6875C247.641 24.3125 248.062 23.75 248.5 23C248.969 22.25 249.406 21.2188 249.812 19.9062C249.969 18.0312 250.094 16.5625 250.188 15.5C250.312 14.4062 250.422 13.5781 250.516 13.0156C250.641 12.3594 250.734 11.9219 250.797 11.7031C250.891 11.5469 251.078 11.4062 251.359 11.2812C251.641 11.125 251.953 11 252.297 10.9062C252.641 10.8125 252.953 10.7656 253.234 10.7656C253.516 10.7344 253.703 10.7344 253.797 10.7656C253.859 10.7969 253.891 11.1875 253.891 11.9375C253.891 12.6562 253.859 13.5781 253.797 14.7031C253.766 15.7969 253.719 17 253.656 18.3125C253.594 19.5938 253.531 20.8125 253.469 21.9688C253.438 23.125 253.406 24.1406 253.375 25.0156C253.375 25.8594 253.406 26.3906 253.469 26.6094Z" fill="black"/>
</svg>
