<svg width="121" height="59" viewBox="0 0 121 59" fill="none" xmlns="http://www.w3.org/2000/svg">
<path d="M24.3047 42.7578C23.8359 41.3047 23.3672 40.0156 22.8984 38.8906C22.4766 37.7656 22.1016 36.8047 21.7734 36.0078C19.9453 36.6172 17.9531 37.0391 15.7969 37.2734C15.7969 40.2734 15.8672 42.8281 16.0078 44.9375C16.0547 46.25 16.1016 47.375 16.1484 48.3125C16.2422 49.2031 16.3125 49.9766 16.3594 50.6328C16.4531 51.2891 16.5469 51.875 16.6406 52.3906C16.7344 52.9531 16.875 53.4922 17.0625 54.0078C16.125 54.7109 15.2109 55.2266 14.3203 55.5547C13.4766 55.8828 12.7266 56.1172 12.0703 56.2578C11.2734 56.4453 10.5703 56.4922 9.96094 56.3984C9.72656 55.7422 9.51562 55.0391 9.32812 54.2891C9.14062 53.5859 9 52.6016 8.90625 51.3359C8.85938 50.1172 8.83594 48.5469 8.83594 46.625C8.83594 44.7031 8.90625 42.2422 9.04688 39.2422C9.09375 38.9141 9.11719 38.5859 9.11719 38.2578C9.11719 37.9297 9.14062 37.6016 9.1875 37.2734C8.76562 37.2266 8.32031 37.1797 7.85156 37.1328C7.42969 37.0859 7.00781 37.0391 6.58594 36.9922C6.30469 36.2422 6.11719 35.5859 6.02344 35.0234C5.92969 34.4141 5.88281 33.9219 5.88281 33.5469C5.88281 33.0781 5.92969 32.7031 6.02344 32.4219C6.77344 32.5625 7.52344 32.6328 8.27344 32.6328H9.32812C9.42188 30.6641 9.51562 28.6719 9.60938 26.6562C9.70312 24.5938 9.77344 22.6016 9.82031 20.6797C9.91406 18.7109 9.98438 16.8594 10.0312 15.125C10.0781 13.3437 10.125 11.7266 10.1719 10.2734C8.76562 11.2109 7.54688 12.4297 6.51562 13.9297C5.48438 15.4297 4.78125 17.1641 4.40625 19.1328C3.79688 19.0391 3.28125 18.7578 2.85938 18.2891C2.4375 17.7734 2.08594 17.2578 1.80469 16.7422C1.47656 16.1328 1.19531 15.4531 0.960938 14.7031C0.726562 13.8125 0.726562 12.9219 0.960938 12.0312C1.19531 11.0937 1.54688 10.2266 2.01562 9.42969C2.48438 8.58594 3.02344 7.85937 3.63281 7.25C4.24219 6.59375 4.82812 6.07813 5.39062 5.70312C6.375 5.09375 7.38281 4.55469 8.41406 4.08594C9.49219 3.57031 10.6875 3.14844 12 2.82031C12.5156 2.30469 13.0781 1.83594 13.6875 1.41406C14.3438 0.992188 14.9531 0.734375 15.5156 0.640625C16.3125 0.453125 16.7578 0.945313 16.8516 2.11719C17.2734 2.07031 17.7188 2.04688 18.1875 2.04688C18.6562 2 19.1484 1.97656 19.6641 1.97656C21.4453 1.97656 23.2969 2.25781 25.2188 2.82031C27.1406 3.38281 28.8984 4.29688 30.4922 5.5625C32.1328 6.78125 33.4688 8.39844 34.5 10.4141C35.5312 12.3828 36.0469 14.7969 36.0469 17.6562C36.0469 20.8906 35.2734 23.8672 33.7266 26.5859C32.2266 29.3047 30.0703 31.5547 27.2578 33.3359C27.5859 34.1797 28.0078 35.2344 28.5234 36.5C29.0391 37.7656 29.5547 39.1953 30.0703 40.7891C30.8203 42.7578 31.6172 44.6094 32.4609 46.3438C33.3516 48.0312 34.2656 49.5078 35.2031 50.7734C36.1406 52.0391 37.125 53.0469 38.1562 53.7969C39.1875 54.5938 40.2188 55.0625 41.25 55.2031C40.6406 56.1406 39.9375 56.7969 39.1406 57.1719C38.3438 57.5469 37.5469 57.7812 36.75 57.875C35.8594 58.0156 34.9219 58.0156 33.9375 57.875C32.5781 57.5938 31.4062 56.9375 30.4219 55.9062C29.4375 54.875 28.5703 53.6328 27.8203 52.1797C27.1172 50.7266 26.4609 49.1797 25.8516 47.5391C25.2891 45.8516 24.7734 44.2578 24.3047 42.7578ZM16.1484 12.8047C16.1484 13.8359 16.125 15.0781 16.0781 16.5312C16.0312 17.9844 15.9844 19.5547 15.9375 21.2422C15.9375 22.9297 15.9141 24.7109 15.8672 26.5859C15.8203 28.4141 15.7969 30.2422 15.7969 32.0703C17.0625 31.8828 18.4453 31.5781 19.9453 31.1562C21.4922 30.7344 22.9219 30.0312 24.2344 29.0469C25.5469 28.0625 26.6484 26.75 27.5391 25.1094C28.4297 23.4688 28.875 21.3594 28.875 18.7812C28.875 16.8125 28.5234 15.1484 27.8203 13.7891C27.1641 12.3828 26.2969 11.2578 25.2188 10.4141C24.1406 9.52344 22.9453 8.89063 21.6328 8.51562C20.3672 8.09375 19.1016 7.88281 17.8359 7.88281C17.6016 7.88281 17.3672 7.88281 17.1328 7.88281C16.8984 7.88281 16.6406 7.90625 16.3594 7.95312C16.2188 9.45313 16.1484 11.0703 16.1484 12.8047ZM49.3359 50.7734C46.0547 50.7734 43.5234 49.6719 41.7422 47.4688C39.9609 45.2656 39.0703 42.3828 39.0703 38.8203C39.0703 36.3359 39.4219 34.0156 40.125 31.8594C40.875 29.6562 41.8594 27.7578 43.0781 26.1641C44.2969 24.5703 45.7031 23.3281 47.2969 22.4375C48.9375 21.5 50.6484 21.0312 52.4297 21.0312C54.1641 21.0312 55.6406 21.6641 56.8594 22.9297C58.0781 24.1484 58.6875 25.9062 58.6875 28.2031C58.6875 29.7031 58.3594 31.2031 57.7031 32.7031C57.0469 34.1562 56.1797 35.4688 55.1016 36.6406C54.0703 37.7656 52.9219 38.6797 51.6562 39.3828C50.3906 40.0859 49.1719 40.4375 48 40.4375C47.25 40.4375 46.6172 40.3438 46.1016 40.1562C45.5859 39.9688 45.1172 39.6875 44.6953 39.3125C44.8359 41.9844 45.4219 43.8594 46.4531 44.9375C47.4844 45.9688 48.8203 46.4844 50.4609 46.4844C51.5859 46.4844 52.5703 46.25 53.4141 45.7812C54.3047 45.3125 55.0547 44.7734 55.6641 44.1641C56.2734 43.5547 56.7656 42.9453 57.1406 42.3359C57.5156 41.6797 57.7734 41.1875 57.9141 40.8594C58.0547 40.5781 58.2891 40.4375 58.6172 40.4375C58.9922 40.4375 59.1797 40.7188 59.1797 41.2812C59.1797 41.7969 58.9922 42.5938 58.6172 43.6719C58.2891 44.7031 57.7266 45.7578 56.9297 46.8359C56.1328 47.8672 55.1016 48.7812 53.8359 49.5781C52.6172 50.375 51.1172 50.7734 49.3359 50.7734ZM52.5703 24.0547C52.2891 24.0547 51.75 24.3594 50.9531 24.9688C50.2031 25.5312 49.3828 26.375 48.4922 27.5C47.6484 28.625 46.8516 29.9844 46.1016 31.5781C45.3984 33.125 44.9531 34.8828 44.7656 36.8516C47.5781 36.1953 49.8047 35.1641 51.4453 33.7578C53.0859 32.3516 53.9062 30.2891 53.9062 27.5703C53.9062 26.2109 53.7422 25.2969 53.4141 24.8281C53.0859 24.3125 52.8047 24.0547 52.5703 24.0547ZM74.3672 36.6406C75.3984 37.0156 76.3828 37.3672 77.3203 37.6953C78.2578 38.0234 79.0781 38.4219 79.7812 38.8906C80.4844 39.3594 81.0469 39.9219 81.4688 40.5781C81.8906 41.1875 82.1016 41.9609 82.1016 42.8984C82.1016 44.0234 81.8438 45.0781 81.3281 46.0625C80.8594 47.0469 80.1562 47.9141 79.2188 48.6641C78.2812 49.4141 77.1328 50 75.7734 50.4219C74.4609 50.8906 72.9844 51.125 71.3438 51.125C69.5156 51.125 68.0391 50.9375 66.9141 50.5625C65.7891 50.2344 64.9219 49.8359 64.3125 49.3672C63.7031 48.8984 63.3047 48.4297 63.1172 47.9609C62.9297 47.4922 62.8359 47.1172 62.8359 46.8359C62.8359 46.2734 62.9531 45.6641 63.1875 45.0078C63.4219 44.3047 63.8672 43.5547 64.5234 42.7578C64.8047 42.4297 65.1094 42.125 65.4375 41.8438C66.0938 41.2812 66.75 40.9297 67.4062 40.7891C67.3125 41.8672 67.4297 42.7578 67.7578 43.4609C68.1328 44.1172 68.6016 44.6328 69.1641 45.0078C69.7734 45.3828 70.4297 45.6406 71.1328 45.7812C71.8828 45.9219 72.5859 45.9922 73.2422 45.9922C73.8984 45.9922 74.5547 45.8984 75.2109 45.7109C75.9141 45.5234 76.5469 45.2891 77.1094 45.0078C77.6719 44.6797 78.1172 44.3281 78.4453 43.9531C78.8203 43.5312 79.0078 43.0859 79.0078 42.6172C79.0078 42.1016 78.7969 41.6797 78.375 41.3516C77.9531 41.0234 77.4141 40.7656 76.7578 40.5781C76.1484 40.3438 75.4688 40.1797 74.7188 40.0859C74.0156 39.9453 73.3359 39.8047 72.6797 39.6641C72.0234 39.5234 71.1328 39.3359 70.0078 39.1016C68.9297 38.8203 67.8516 38.3984 66.7734 37.8359C65.7422 37.2734 64.8281 36.5234 64.0312 35.5859C63.2812 34.6484 62.9062 33.4062 62.9062 31.8594C62.9062 30.0781 63.3516 28.5312 64.2422 27.2188C65.1797 25.8594 66.3047 24.7344 67.6172 23.8438C68.9766 22.9062 70.4062 22.2031 71.9062 21.7344C73.4062 21.2656 74.7422 21.0312 75.9141 21.0312C76.5234 21.0312 77.1797 21.125 77.8828 21.3125C78.5859 21.4531 79.2422 21.7344 79.8516 22.1562C80.4609 22.5312 80.9531 23.0469 81.3281 23.7031C81.75 24.3594 81.9609 25.2031 81.9609 26.2344C81.9609 27.2656 81.8672 28.1094 81.6797 28.7656C81.5391 29.375 81.3047 29.8672 80.9766 30.2422C80.6953 30.5703 80.3438 30.7812 79.9219 30.875C79.5 30.9688 79.0078 31.0156 78.4453 31.0156C78.0703 31.0156 77.7188 30.9688 77.3906 30.875C77.1094 30.7812 76.8047 30.6875 76.4766 30.5938C76.1484 30.5 75.8438 30.3359 75.5625 30.1016C76.0312 29.5391 76.3828 29 76.6172 28.4844C76.8984 27.9688 77.0391 27.3359 77.0391 26.5859C77.0391 25.9297 76.8516 25.3438 76.4766 24.8281C76.1484 24.3125 75.5859 24.0547 74.7891 24.0547C73.9453 24.0547 73.125 24.2188 72.3281 24.5469C71.5781 24.875 70.8984 25.3203 70.2891 25.8828C69.7266 26.4453 69.2578 27.1016 68.8828 27.8516C68.5547 28.5547 68.3906 29.3281 68.3906 30.1719C68.3906 31.4375 68.8594 32.6328 69.7969 33.7578C70.7812 34.8828 72.3047 35.8438 74.3672 36.6406ZM112.617 18.7109C112.102 18.6172 111.398 18.5234 110.508 18.4297C109.664 18.3359 108.797 18.2656 107.906 18.2188C106.875 18.1719 105.773 18.1484 104.602 18.1484C103.43 18.0547 101.953 18.0547 100.172 18.1484C98.4375 18.1953 96.6094 18.2188 94.6875 18.2188C94.6406 19.4375 94.5469 20.6797 94.4062 21.9453C94.3125 23.2109 94.2188 24.4531 94.125 25.6719C93.8906 27.9219 93.6797 30.2188 93.4922 32.5625C93.3516 34.9062 93.2812 37.1328 93.2812 39.2422C93.2812 41.3516 93.3984 43.2734 93.6328 45.0078C93.9141 46.6953 94.4062 48.0312 95.1094 49.0156C94.5469 49.4375 93.9375 49.7656 93.2812 50C92.625 50.1875 92.0391 50.3281 91.5234 50.4219C90.9141 50.5625 90.3047 50.6328 89.6953 50.6328C89.1328 50.6328 88.6641 50.4453 88.2891 50.0703C87.9141 49.6953 87.7031 49.0391 87.6562 48.1016C87.5625 46.5078 87.5391 44.9141 87.5859 43.3203C87.6797 41.6797 87.7734 39.9688 87.8672 38.1875C88.0078 36.4062 88.1484 34.5078 88.2891 32.4922C88.4297 30.4297 88.5703 28.1797 88.7109 25.7422C88.8516 23.2109 88.9219 20.75 88.9219 18.3594C87.1406 18.4062 85.6406 18.4297 84.4219 18.4297C83.2031 18.4297 82.5234 18.4062 82.3828 18.3594C82.2422 18.2656 82.0781 18.0547 81.8906 17.7266C81.7031 17.4453 81.4688 17.0234 81.1875 16.4609C80.8594 15.8984 80.4609 15.1016 79.9922 14.0703C80.8828 14.0703 81.8672 14.0703 82.9453 14.0703C83.9766 14.0703 84.9375 14.0469 85.8281 14C86.8594 13.9531 87.8906 13.9062 88.9219 13.8594C88.875 13.1094 88.8516 12.3125 88.8516 11.4688C88.8047 10.8125 88.7812 10.0859 88.7812 9.28906C88.7812 8.44531 88.7578 7.67188 88.7109 6.96875C88.7109 6.6875 89.0391 6.35938 89.6953 5.98438C90.3984 5.5625 91.1484 5.1875 91.9453 4.85938C92.7422 4.53125 93.4688 4.32031 94.125 4.22656C94.8281 4.13281 95.1797 4.29688 95.1797 4.71875C95.1797 5.14062 95.1562 6.17187 95.1094 7.8125C95.1094 9.40625 95.0625 11.3516 94.9688 13.6484C95.4375 13.6484 95.7891 13.625 96.0234 13.5781C98.5078 13.4844 100.5 13.3906 102 13.2969C103.547 13.1562 104.812 13.1328 105.797 13.2266C106.781 13.3203 107.648 13.5547 108.398 13.9297C109.148 14.3047 109.992 14.9141 110.93 15.7578C111.258 16.0391 111.539 16.3438 111.773 16.6719C112.008 16.9531 112.195 17.2812 112.336 17.6562C112.523 17.9844 112.617 18.3359 112.617 18.7109ZM120.211 37.9062C120.117 39.7344 119.789 41.4219 119.227 42.9688C118.711 44.5156 117.984 45.875 117.047 47.0469C116.109 48.1719 114.984 49.0625 113.672 49.7188C112.406 50.375 111 50.7266 109.453 50.7734C108.094 50.8203 106.805 50.4922 105.586 49.7891C104.414 49.0859 103.383 48.1016 102.492 46.8359C101.602 45.5703 100.922 44.0703 100.453 42.3359C100.031 40.5547 99.9141 38.6328 100.102 36.5703C100.242 34.1797 100.688 32.1406 101.438 30.4531C102.188 28.7188 102.984 27.2891 103.828 26.1641C104.672 25.0391 105.445 24.2188 106.148 23.7031C106.898 23.1406 107.367 22.8125 107.555 22.7188C107.883 22.5781 108.188 22.5547 108.469 22.6484C108.75 22.6953 109.055 22.7656 109.383 22.8594C109.477 22.9062 109.57 23.0234 109.664 23.2109C109.852 23.5391 109.969 24.1484 110.016 25.0391C110.25 24.5234 110.555 24.1016 110.93 23.7734C111.305 23.4453 111.68 23.2109 112.055 23.0703C112.523 22.8828 112.992 22.7656 113.461 22.7188C113.789 22.6719 114.352 22.9297 115.148 23.4922C115.992 24.0547 116.789 24.9453 117.539 26.1641C118.336 27.3828 119.016 28.9766 119.578 30.9453C120.141 32.8672 120.352 35.1875 120.211 37.9062ZM115.43 37.0625C115.477 35.9375 115.43 34.8125 115.289 33.6875C115.195 32.5156 115.008 31.4609 114.727 30.5234C114.492 29.5391 114.188 28.7656 113.812 28.2031C113.438 27.5938 113.062 27.2891 112.688 27.2891C112.266 27.3828 111.797 27.5938 111.281 27.9219C110.859 28.2031 110.391 28.6484 109.875 29.2578C109.359 29.8672 108.867 30.7344 108.398 31.8594C108.352 31.7188 108.305 31.4609 108.258 31.0859C108.211 30.7578 108.164 30.3359 108.117 29.8203C108.117 29.2578 108.164 28.5078 108.258 27.5703C107.602 28.3672 107.086 29.3047 106.711 30.3828C106.383 31.4609 106.125 32.4922 105.938 33.4766C105.75 34.6484 105.609 35.8203 105.516 36.9922C105.469 38.2578 105.516 39.5 105.656 40.7188C105.844 41.9375 106.125 43.0156 106.5 43.9531C106.922 44.8906 107.414 45.6406 107.977 46.2031C108.539 46.7656 109.219 47.0234 110.016 46.9766C110.812 46.9297 111.516 46.6016 112.125 45.9922C112.734 45.3828 113.273 44.6094 113.742 43.6719C114.211 42.7344 114.586 41.6797 114.867 40.5078C115.148 39.3359 115.336 38.1875 115.43 37.0625Z" fill="black"/>
</svg>
